<svg xmlns="http://www.w3.org/2000/svg" direction="ltr" width="1416" height="1444" viewBox="-30 -370 1416 1444" stroke-linecap="round" stroke-linejoin="round" data-color-mode="light" class="tl-container tl-theme__force-sRGB tl-theme__light" style="background-color: rgb(249, 250, 251);">
	<g transform="matrix(1, 0, 0, 1, 325.2059, -86.2115)" opacity="1">
		<g transform="scale(1)">
			<path d="M0,0 Q-34.0745,0 -46.016,0 T-66.6378,0 -82.4343,0 -96.6027,-0.5577 -111.9508,-2.9367 -128.6713,-7.1131 -143.8333,-11.3749 -156.007,-14.802 -165.4474,-17.5292 -172.2368,-19.6485 -176.9392,-21.4118 -180.0217,-23.0667 -181.9182,-24.5464 -183.19,-25.8451 -184.0697,-27.1675 -184.6363,-28.6323 -185.0122,-30.2956 -185.2237,-32.3164 -185.3136,-34.6041 -185.3518,-36.9046 -185.368,-39.1157 -185.3749,-41.1221 -185.3261,-42.8229 -184.8568,-44.115 -183.5563,-44.9775 -181.451,-45.5539 -178.7537,-45.8909 -175.8018,-46.0341 -172.7389,-46.095 -169.2838,-46.1209 -165.1215,-46.1319 -159.9284,-46.1365 -153.7136,-46.1385 -146.7425,-46.0215 -138.3863,-45.5836 -127.7624,-44.8254 -114.7315,-43.7586 -99.2948,-42.4081 -82.7752,-41.0723 -67.0632,-39.875 -51.9446,-38.7854 -37.1098,-37.845 -23.3042,-37.0228 -10.5167,-36.3197 1.6542,-35.673 13.3904,-34.9496 24.9189,-34.1448 36.3275,-33.3227 47.4092,-32.5018 57.9494,-31.6498 67.995,-30.8708 77.7298,-30.2436 86.9874,-29.5918 95.5708,-28.7254 103.8503,-27.5407 111.9778,-26.0999 119.7329,-24.5647 127.1315,-22.9865 134.0536,-21.3038 140.0574,-19.5593 144.9838,-17.8376 148.9922,-16.137 152.2799,-14.5402 155.0429,-13.0163 157.393,-11.5091 159.4181,-10.1124 161.1471,-8.8374 162.5978,-7.6256 163.8008,-6.4465 164.7318,-5.2841 165.3949,-4.2123 165.8032,-3.2622 165.9767,-2.3151 165.6796,-1.4497 164.1935,-0.7714 161.1152,-0.2301 156.8946,0.1092 152.2345,0.2534 147.4939,0.3147 142.561,0.3407 136.5862,0.3518 128.938,0.3565 120.0324,0.3585 110.2388,0.3594 100.0965,0.3597 90.2631,0.3599 81.1275,0.36 73.1134,0.36 66.2345,0.36 60.2461,0.36 55.0906,0.36 50.6311,0.36 46.4215,0.36 42.2778,0.2594 33.8122,-0.7868 22.6247,-2.4311 L17.87,-3.13 " stroke-linecap="round" fill="none" pointer-events="all" stroke="color(display-p3 0.9992 0.4376 0.45)" stroke-width="49.28" opacity="0.82"/>
		</g>
	</g>
	<g transform="matrix(1, 0, 0, 1, 76.3444, -113.5509)" opacity="1">
		<g transform="scale(1)">
			<path d="M0,0 Q-13.8862,1.7595 -17.2683,2.1334 T-22.4155,2.6662 -25.1436,2.7546 -26.5848,2.3495 -27.2835,1.217 -27.5978,-0.8944 -27.7313,-3.6231 -27.7881,-6.3813 -27.8122,-8.9307 -27.7649,-11.19 -27.4516,-13.2399 -26.7204,-15.3071 -25.2884,-17.8186 -23.4867,-20.2344 -21.939,-21.8218 -20.6056,-22.8586 -19.3747,-23.5494 -18.1846,-23.9293 -17.0147,-24.0907 -15.8505,-24.1593 -14.6916,-24.1884 -13.5349,-24.1836 -12.4626,-23.9832 -11.5124,-23.3862 -10.6054,-22.3678 -9.7915,-21.0322 -9.0949,-19.5273 -8.4395,-17.9246 -7.8475,-16.2573 -7.3401,-14.6287 -6.8714,-13.1776 -6.4623,-11.799 -6.093,-10.3477 -5.6773,-8.8971 -5.2706,-7.4527 -4.9856,-6.051 -4.8386,-4.7653 -4.7762,-3.5576 -4.7496,-2.3831 -4.7383,-1.2284 -4.7335,-0.0937 -4.7315,1.0498 -4.7306,2.22 -4.7303,3.3901 -4.7301,4.5516 -4.73,5.7093 -4.73,6.8654 -4.73,8.0123 -4.73,9.0604 -4.73,9.9198 -4.7501,10.6875 -4.8737,11.4307 -5.2108,12.0513 -5.7365,12.5968 -6.3221,13.1736 -6.9103,13.7408 -7.5455,14.2291 -12.5937,12.8496 -20.7806,10.0709 L-24.26,8.89 " stroke-linecap="round" fill="none" pointer-events="all" stroke="color(display-p3 0.1512 0.9414 0.9996)" stroke-width="49.28" opacity="0.82"/>
		</g>
	</g>
	<g transform="matrix(1, 0, 0, 1, 394.2937, 175.6716)" opacity="1">
		<g transform="scale(1)">
			<path d="M0,0 Q18.8164,0 23.9218,0 T32.2962,0 38.9187,0 44.6861,0 49.0883,0 52.7052,0 55.6149,0 58.1321,0 60.6639,0 63.1835,0 65.5769,0 67.83,0 69.9813,0 72.1709,0 74.4451,0 76.7159,0 78.9089,0 81.0899,0 83.3395,0 85.6392,0 87.9576,0 90.2865,0 92.62,0 94.8633,0 96.9816,0 99.1387,0 101.3966,0 103.6998,0 106.1354,-0.1006 108.735,-0.3446 111.4044,-0.549 114.0981,-0.6358 116.6971,-0.6957 119.1794,-0.8362 121.6543,-1.0598 124.0945,-1.2266 126.4621,-1.2976 128.7173,-1.3277 130.7591,-1.3405 132.5656,-1.346 134.2142,-1.4403 135.7458,-1.6615 137.1882,-1.8446 138.5927,-1.9225 139.8837,-1.9556 141.0346,-1.9696 142.1311,-1.9756 143.2808,-1.9781 144.6213,-1.9792 146.2507,-1.9797 148.1896,-1.9799 150.3467,-1.9799 152.6308,-1.98 155.0793,-1.98 157.6871,-1.98 160.2732,-1.98 162.8316,-1.98 165.4782,-1.98 168.1833,-2.0116 170.8633,-2.1487 173.4196,-2.3593 175.9601,-2.5092 178.5964,-2.5729 181.1683,-2.6 183.6155,-2.6115 186.0072,-2.6164 188.3672,-2.6185 190.8217,-2.6193 193.4268,-2.6197 195.9854,-2.6199 198.5243,-2.6199 201.1625,-2.62 203.8247,-2.62 206.4943,-2.62 209.0961,-2.62 211.4772,-2.62 213.5672,-2.62 215.4442,-2.62 217.2069,-2.62 218.8947,-2.62 220.4745,-2.62 221.8428,-2.62 223.029,-2.62 224.138,-2.62 225.214,-2.62 226.2788,-2.62 227.3387,-2.62 228.3939,-2.62 233.7542,-1.171 242.1601,1.349 L245.7326,2.42 " stroke-linecap="round" fill="none" pointer-events="all" stroke="color(display-p3 0.972 0.8705 0.05)" stroke-width="49.28" opacity="0.82"/>
		</g>
	</g>
	<g transform="matrix(1, 0, 0, 1, 198.3235, -236.9895)" opacity="1">
		<g transform="scale(1)">
			<path d="M0,0 Q-30.3699,0 -41.4192,-0.0062 T-61.1094,-0.2398 -76.6757,-1.0134 -89.7488,-2.3154 -101.1325,-3.9576 -111.3206,-5.8825 -121.3604,-8.0306 -133.4206,-10.5809 -145.2389,-13.1763 -153.4384,-15.3681 -159.138,-17.4606 -163.2837,-19.715 -166.1876,-22.1723 -167.7609,-24.6725 -168.4296,-27.1518 -168.7137,-29.5479 -168.8345,-31.7499 -168.7128,-33.6962 -167.879,-35.375 -166.0643,-36.8741 -163.5973,-38.3444 -160.8601,-39.792 -157.9873,-41.1847 -154.7938,-42.6302 -151.035,-44.0406 -146.842,-45.3019 -142.6238,-46.5432 -138.5817,-47.7822 -134.4621,-48.979 -129.8806,-50.2258 -124.6182,-51.6177 -118.9488,-53.1042 -113.3625,-54.5278 -107.8323,-55.7535 -102.0491,-56.7013 -96.0268,-57.4691 -89.7231,-58.2388 -83.0158,-59.0835 -75.9711,-59.9189 -68.7898,-60.676 -61.6335,-61.3978 -53.9618,-62.117 -44.6523,-62.9341 -32.7295,-63.9804 -18.1804,-65.2396 -2.342,-66.5192 12.9853,-67.626 27.3688,-68.5521 41.6625,-69.3931 56.6518,-70.1383 73.1963,-70.7849 91.8967,-71.3113 111.7003,-71.6195 130.7892,-71.7505 148.8477,-71.8062 166.6689,-71.8299 185.8774,-71.8399 207.3572,-71.8442 230.1969,-71.846 253.9883,-71.7891 278.2049,-71.5504 302.7199,-71.1747 328.7597,-70.8026 356.8042,-70.2857 387.0364,-69.4907 418.8975,-68.5445 451.5338,-67.466 485.2887,-66.3189 519.2005,-65.322 552.5078,-64.5952 586.1048,-64.1069 619.562,-63.6334 652.0739,-63.0362 684.6754,-62.2875 718.5331,-61.2785 753.9628,-59.9361 790.0884,-58.3057 825.4577,-56.5054 860.8032,-54.5484 896.0832,-52.4732 928.8575,-50.3953 958.6153,-48.3656 986.1704,-46.2554 1011.1907,-43.8347 1033.0989,-41.1294 1052.0786,-38.2866 1068.5404,-35.3339 1082.2501,-32.4397 1093.0877,-29.8177 1101.6525,-27.4537 1108.6147,-25.3891 1114.1968,-23.6022 1118.5416,-21.9272 1121.8832,-20.3658 1124.12,-18.8649 1125.2645,-17.3383 1125.7509,-15.9183 1125.9576,-14.6755 1126.0455,-13.4792 1126.0136,-12.3047 1125.4394,-11.1911 1123.6382,-10.095 1120.5263,-9.0621 1116.5184,-8.1179 1111.9843,-7.2093 1107.0674,-6.3097 1101.6279,-5.4015 1095.7448,-4.533 1089.6732,-3.7474 1083.5353,-3.032 1077.1062,-2.398 1070.0135,-1.8316 1062.6388,-1.2548 1055.1235,-0.622 1046.6763,0.0677 1036.885,0.8742 1025.4772,1.7449 1012.3789,2.5892 997.8562,3.4904 981.5653,4.4302 963.2357,5.3616 942.683,6.3885 918.4794,7.5157 889.5058,8.6319 857.0031,9.6982 822.3222,10.7514 785.6567,11.8692 746.7427,13.1361 704.8937,14.4355 660.0532,15.4702 612.7024,16.0977 563.5095,16.4014 514.3089,16.5305 467.2161,16.5854 422.7423,16.6087 381.022,16.6186 344.3408,16.6228 311.9745,16.4184 279.6563,15.6387 247.5316,14.2391 217.9462,12.4998 191.6547,10.777 167.6836,9.2756 144.9687,7.9529 123.5558,6.7969 103.0424,5.7653 82.9251,4.7392 63.336,3.7855 45.0304,3.0111 28.6753,2.3314 14.2287,1.6569 1.2578,0.9578 -10.4354,0.1967 -23.9665,-0.7124 -37.8775,-1.6017 L-43.7897,-1.9796 " stroke-linecap="round" fill="none" pointer-events="all" stroke="color(display-p3 0.1512 0.9414 0.9996)" stroke-width="49.28" opacity="0.82"/>
		</g>
	</g>
	<g transform="matrix(1, 0, 0, 1, 1142.3692, -119.2848)" opacity="1">
		<g transform="scale(1)">
			<path d="M0,0 Q22.8371,0 30.8663,0 T45.1239,0 56.5211,0 66.5318,0.138 75.8332,0.6049 84.1959,1.3553 91.5526,2.3614 98.1607,3.5853 104.351,4.8703 110.3575,6.1552 116.24,7.2217 122.0351,7.9711 127.8008,8.5426 133.5067,8.8976 139.0164,9.0485 144.1233,9.219 148.6764,9.5042 157.0006,10.1515 167.769,10.9996 L172.3455,11.36 " stroke-linecap="round" fill="none" pointer-events="all" stroke="color(display-p3 0.1512 0.9414 0.9996)" stroke-width="49.28" opacity="0.82"/>
		</g>
	</g>
	<g transform="matrix(1, 0, 0, 1, 1016.2789, -24.6742)" opacity="1">
		<g transform="scale(1)">
			<path d="M0,0 Q30.5976,0 42.1196,0 T63.3724,0 82.0251,0 99.4886,0 116.2149,0 132.0994,0 146.8342,0 160.0953,0.0604 171.5959,0.3333 181.465,0.9035 190.2492,1.6921 198.4283,2.493 206.1572,3.0605 213.4312,3.342 220.3259,3.4616 226.6291,3.5124 232.0858,3.534 236.777,3.5432 240.8814,3.5471 244.6221,3.5488 248.2891,3.5495 252.0003,3.5498 255.7197,3.5499 259.4285,3.55 263.0556,3.55 266.6076,3.55 270.1241,3.55 277.9643,3.55 288.5669,3.55 L293.073,3.55 " stroke-linecap="round" fill="none" pointer-events="all" stroke="color(display-p3 0.1512 0.9414 0.9996)" stroke-width="49.28" opacity="0.82"/>
		</g>
	</g>
	<g transform="matrix(1, 0, 0, 1, 33.2967, -31.1464)" opacity="1">
		<g transform="scale(1)">
			<path d="M0,0 Q38.5135,0.299 52.8214,0.4028 T78.5605,0.8813 99.1797,1.9846 116.1107,3.3878 130.6032,4.4298 143.1364,4.9532 153.6063,5.1756 162.0264,5.2701 172.39,5.4857 183.9198,5.8115 L188.82,5.95 " stroke-linecap="round" fill="none" pointer-events="all" stroke="color(display-p3 0.1512 0.9414 0.9996)" stroke-width="49.28" opacity="0.82"/>
		</g>
	</g>
	<g transform="matrix(1, 0, 0, 1, 669.2531, 117.2625)" opacity="1">
		<g transform="scale(1)">
			<path d="M0,0 Q25.0873,0 34.0149,0 T50.8653,0 71.3581,-1.237 93.974,-3.8264 112.9323,-6.4697 130.0804,-8.9954 145.7029,-11.4051 159.8807,-13.4651 173.1398,-15.0762 185.9164,-16.4552 198.5311,-17.6833 210.87,-18.8719 222.6862,-20.1375 234.1194,-21.4 245.2374,-22.4682 255.9885,-23.173 266.3135,-23.5248 276.3309,-23.6744 286.3842,-23.8702 296.5651,-24.2151 306.8403,-24.6124 317.1182,-25.021 327.107,-25.3131 337.2977,-25.4372 348.4885,-25.49 360.3775,-25.5124 372.7414,-25.5219 385.313,-25.526 397.346,-25.5277 409.4952,-25.5285 422.4268,-25.5288 435.5157,-25.5289 448.3608,-25.5289 461.2231,-25.529 474.7999,-25.4105 489.0801,-25.126 503.2538,-24.7599 516.5025,-24.348 528.6796,-23.9719 540.3034,-23.6192 551.2495,-23.3095 561.6946,-23.1365 572.3726,-23.063 583.0374,-23.0318 593.1301,-23.0185 602.6463,-23.0128 611.3482,-23.0104 618.8904,-23.0094 625.4739,-23.009 631.1383,-23.0088 635.6386,-23.0087 639.029,-22.9316 641.5107,-22.7417 643.3158,-22.504 644.7442,-22.2487 645.9205,-22.063 646.8316,-21.9841 647.5581,-21.8927 648.1658,-21.7409 648.6282,-21.569 648.9541,-21.3085 648.9977,-20.9471 648.7058,-20.5897 648.0182,-20.0851 647.0791,-19.4436 646.1424,-18.7274 645.2038,-17.8224 644.3851,-16.7049 643.7727,-15.307 643.4204,-13.7652 643.2707,-12.2338 643.207,-10.5415 643.18,-8.5136 643.1685,-6.2935 643.1636,-3.9779 643.1615,-1.5473 643.1607,0.8219 643.1603,3.0906 643.1601,5.3222 643.1601,7.571 643.16,10.2211 643.16,13.5185 643.16,17.4766 643.16,22.3133 643.16,28.2234 643.16,35.1102 643.16,42.7428 643.16,50.8439 643.16,59.0174 643.16,67.2382 643.0163,76.154 642.5239,86.1698 641.7483,96.4464 640.8638,106.36 639.9531,116.2405 639.0658,125.7515 638.2517,134.6454 637.6355,143.7592 637.2988,153.2861 637.0868,162.6854 636.804,172.1407 636.4998,181.6969 636.3102,190.9765 636.2296,200.4746 636.0976,210.9555 635.6936,222.4987 634.829,235.3145 633.4352,249.4728 631.6698,264.5929 629.7092,280.7472 627.47,298.2999 624.9573,316.9702 622.633,336.3498 620.7021,356.4799 618.9443,376.8738 617.4094,397.0659 616.1563,416.891 615.1838,435.8908 614.5664,453.6664 614.12,469.4808 613.7117,483.3487 613.452,496.3975 613.3416,508.7897 613.2947,520.225 613.2747,530.8074 613.2663,540.479 613.2627,549.0361 613.2611,556.643 613.2605,563.6587 613.2602,570.211 613.2601,576.412 613.26,582.2737 613.26,587.5916 613.26,592.29 613.2658,596.7416 613.4924,601.4079 614.2127,606.2784 615.2461,611.1696 616.3437,616.0724 617.5663,620.991 618.9312,625.9633 620.3709,631.1402 621.8625,636.7649 623.2813,642.806 624.4996,648.8862 625.5549,654.713 626.4203,660.0878 627.0411,664.8213 627.443,668.8801 627.654,672.407 627.7437,675.5066 627.7818,678.1739 627.798,680.5253 627.8049,682.8333 627.8078,685.2165 627.8091,687.7502 627.8096,690.5848 627.8098,693.674 627.8099,696.9761 627.81,700.5945 627.81,704.4687 627.81,708.5618 627.81,713.0785 627.81,718.2298 627.81,723.9429 627.81,729.8396 627.81,735.5224 627.81,740.6072 627.81,744.8759 627.81,748.2881 627.81,750.9092 627.81,753.0122 627.81,754.873 627.81,756.5869 627.81,758.1886 627.81,759.7179 627.81,761.0318 627.81,762.0173 627.81,762.8604 627.81,763.913 627.81,766.4405 627.81,770.3166 627.81,774.3306 627.81,778.3287 627.81,782.1659 627.81,785.7721 627.81,788.9881 627.81,791.8124 627.81,794.4233 627.81,796.938 627.81,799.4092 627.81,801.87 627.81,804.4063 627.81,807.198 627.81,810.1642 627.81,812.8768 627.81,815.14 627.81,817.022 627.81,818.5465 627.81,819.817 627.81,820.908 627.81,821.8483 627.81,822.8017 627.81,823.8433 627.81,824.9693 627.81,826.2275 627.81,827.6026 627.81,829.0879 627.81,830.9975 627.6289,833.9526 626.8446,838.33 625.2722,844.1054 623.2843,850.7119 621.3958,856.9856 619.8687,861.9551 618.7655,865.4392 617.9516,867.9531 617.2405,870.1539 616.6451,872.4199 616.1965,874.6889 615.7587,876.6423 615.3311,878.1916 615.1349,879.379 614.7929,880.1426 612.8937,880.5719 608.0731,881.0959 599.9322,882.1176 584.2334,883.855 563.7931,885.8222 544.1953,887.4379 524.0069,888.7858 503.1189,889.8684 481.5542,890.5544 459.7018,890.879 437.5978,891.017 415.45,891.0756 393.6546,891.1005 372.1383,891.1111 351.1317,891.1156 331.8078,891.1175 315.0306,891.1183 300.385,891.0856 287.3382,890.9174 275.5891,890.6366 264.7624,890.429 254.618,890.3408 245.0512,890.3034 236.0546,890.2874 227.6167,890.2807 219.5629,890.2778 211.517,890.2766 203.2387,890.276 194.695,890.2758 185.909,890.2757 177.1609,890.2757 168.7798,890.2757 160.8995,890.2757 153.4162,890.2757 145.5236,890.2757 136.8994,890.1765 128.0936,889.9387 119.0985,889.7247 110.1294,889.485 101.7175,889.0194 93.8673,888.3642 86.5319,887.6339 79.4382,886.913 72.2977,886.3477 65.1834,886.033 58.2383,885.8993 51.6814,885.8424 45.7754,885.8183 40.6318,885.7501 36.094,885.4181 32.0121,884.7177 28.3194,883.8911 24.9531,883.1513 21.8981,882.487 19.0874,881.8658 16.5043,881.3511 14.3139,881.0331 12.6097,880.887 11.4656,880.8249 11.2496,880.8921 11.8133,880.9703 12.3462,880.4332 12.5726,878.326 12.6689,874.1243 12.7098,868.4897 12.8422,862.0891 13.689,851.4121 15.0638,837.1544 16.1196,822.6174 16.8185,807.4107 17.3483,792.341 17.8208,777.5223 18.3896,762.9094 19.008,748.4695 19.4519,734.0699 19.6808,719.6656 19.7781,705.193 19.8194,691.4629 19.837,678.8969 19.8445,666.1974 19.8477,653.535 19.6794,641.6707 19.1364,629.804 18.3593,618.1071 17.6697,606.6917 17.2616,594.6328 17.0882,581.6448 17.0145,568.2811 16.9832,555.058 16.9698,542.0133 16.9642,529.08 16.9618,516.2163 16.9608,503.7843 16.9603,491.8775 16.9601,479.8411 16.7301,467.4577 16.1349,455.0178 15.5715,442.394 15.2889,429.309 15.1688,415.9235 15.1177,402.2999 15.096,388.9031 14.9517,376.0958 14.485,362.7868 13.749,348.7192 13.0337,334.7948 12.5946,320.945 12.4079,307.2508 12.3286,294.0417 12.2949,280.6446 12.2806,267.2779 12.2745,254.4724 12.2719,241.4149 12.2708,227.4542 12.2703,212.0048 12.2701,195.8207 12.4742,181.1455 13.0152,169.0843 13.6332,159.8918 14.284,153.4833 15.1298,149.4207 16.0729,147.1128 16.8331,145.6553 17.2511,143.9008 17.4287,140.7334 17.5042,135.8139 17.5363,127.9374 17.5154,118.9749 17.3628,111.3584 17.1139,104.2862 16.9334,97.7568 16.8567,91.5269 16.8241,85.4023 16.8102,79.4739 16.6951,73.6372 16.3299,67.9799 15.7607,62.7572 15.1106,58.0138 14.4691,53.8489 13.9406,50.0676 13.5148,46.3832 13.052,42.8392 12.0417,35.5748 10.7353,25.936 L10.18,21.8396 " stroke-linecap="round" fill="none" pointer-events="all" stroke="color(display-p3 0.1512 0.9414 0.9996)" stroke-width="49.28" opacity="0.82"/>
		</g>
	</g>
	<g transform="matrix(1, 0, 0, 1, 873.1612, 148.2464)" opacity="1">
		<g transform="scale(1)">
			<path d="M0,0 Q27.715,-0.299 38.3798,-0.3625 T59.1547,-0.4531 79.2827,-0.4916 98.1239,-0.5079 114.5092,-0.5149 129.5746,-0.7737 144.0045,-1.4443 156.8848,-2.083 168.2699,-2.4033 178.7148,-2.5394 188.2829,-2.5972 196.7194,-2.7311 203.8699,-3.018 209.8643,-3.3613 214.8471,-3.694 219.052,-3.9217 222.7654,-4.1105 230.772,-4.3747 241.6267,-4.624 L246.24,-4.73 " stroke-linecap="round" fill="none" pointer-events="all" stroke="color(display-p3 0.9992 0.4376 0.45)" stroke-width="49.28" opacity="0.82"/>
		</g>
	</g>
	<g transform="matrix(1, 0, 0, 1, 1002.2245, 650.1926)" opacity="1">
		<g transform="scale(1)">
			<path d="M0,0 Q27.5186,0 36.2378,0 T51.3437,0 62.9831,0 73.1083,0 82.6961,0 92.0749,0.0518 101.3141,0.2491 110.1827,0.5285 118.2978,0.7191 125.417,0.8001 131.6617,0.8346 137.4719,0.8492 143.1603,0.8554 148.7559,0.858 154.2107,0.8592 159.4343,0.8596 164.4004,0.8599 169.0085,0.8599 173.1267,0.86 176.8894,0.86 180.4141,0.86 183.6761,0.86 186.8264,0.86 190.0837,0.86 193.3888,0.8312 196.6636,0.6925 199.9786,0.3633 207.2392,-0.4033 216.9511,-1.3554 L221.0787,-1.76 " stroke-linecap="round" fill="none" pointer-events="all" stroke="color(display-p3 0.972 0.8705 0.05)" stroke-width="49.28" opacity="0.82"/>
		</g>
	</g>
	<g transform="matrix(1, 0, 0, 1, 795.2524, 965.1175)" opacity="1">
		<g transform="scale(1)">
			<path d="M0,0 Q31.1003,0 41.9442,0 T61.4105,0 81.318,0 101.2791,0 117.1128,0 129.9644,0 140.5007,0 149.2472,0 156.4272,0 162.805,-0.0455 169.0401,-0.2898 175.3999,-0.712 181.8334,-1.0638 188.0535,-1.3737 193.7478,-1.8597 198.7219,-2.5114 203.0113,-3.1738 206.7781,-3.7522 214.684,-4.2325 225.3548,-4.6102 L229.8898,-4.7708 " stroke-linecap="round" fill="none" pointer-events="all" stroke="color(display-p3 0.972 0.8705 0.05)" stroke-width="49.28" opacity="0.82"/>
		</g>
	</g>
	<g transform="matrix(1, 0, 0, 1, 1099.0547, -114.3959)" opacity="1">
		<g transform="scale(1)">
			<path d="M 0 0 m -0.1, 0 a 0.1,0.1 0 1,0 0.2,0 a 0.1,0.1 0 1,0 -0.2,0" stroke-linecap="round" fill="none" pointer-events="all" stroke="color(display-p3 0.9992 0.4376 0.45)" stroke-width="52.524534245679774" opacity="0.82"/>
		</g>
	</g>
	<g transform="matrix(1, 0, 0, 1, 784.5876, 196.759)" opacity="1">
		<g transform="scale(1)">
			<path d="M0,0 Q21.6217,0 28.9816,0 T45.6336,-0.5569 62.0252,-1.7226 75.2521,-2.9125 86.9626,-4.0496 97.5221,-5.1344 107.0591,-6.0618 115.9573,-6.787 124.5225,-7.4079 132.975,-7.9607 141.241,-8.4958 149.1562,-9.0655 156.8144,-9.6339 164.2614,-10.1148 171.4626,-10.4321 178.3784,-10.5905 185.0881,-10.6578 191.8219,-10.7459 198.641,-10.9012 205.5234,-11.0801 212.4077,-11.264 219.0982,-11.3955 225.924,-11.4514 233.4197,-11.4751 241.383,-11.4852 249.6644,-11.4895 258.0849,-11.4913 266.1447,-11.4921 274.2823,-11.4924 282.944,-11.4926 291.711,-11.4926 300.3147,-11.4927 308.93,-11.4927 318.0238,-11.4394 327.5888,-11.3113 337.0824,-11.1464 345.9564,-10.961 354.1127,-10.7917 361.8985,-10.6329 369.2302,-10.4935 376.2264,-10.4156 383.3786,-10.3825 390.5219,-10.3685 397.2821,-10.3625 403.6561,-10.36 409.4847,-10.3589 414.5364,-10.3584 418.9461,-10.3582 422.7402,-10.3582 425.7546,-10.3581 428.0255,-10.3234 429.6877,-10.2379 430.8968,-10.1309 431.8535,-10.016 432.6414,-9.9324 433.2517,-9.8969 433.7382,-9.8557 434.1453,-9.7874 434.455,-9.71 434.6733,-9.5927 434.7026,-9.43 434.507,-9.2691 434.0465,-9.0419 433.4175,-8.7532 432.79,-8.4307 432.1613,-8.0233 431.613,-7.5203 431.2028,-6.8909 430.9668,-6.1968 430.8665,-5.5074 430.8239,-4.7456 430.8058,-3.8327 430.7981,-2.8332 430.7948,-1.7908 430.7934,-0.6966 430.7928,0.37 430.7926,1.3913 430.7925,2.396 430.7924,3.4083 430.7924,4.6014 430.7924,6.0858 430.7924,7.8676 430.7924,10.0451 430.7924,12.7056 430.7924,15.806 430.7924,19.2421 430.7924,22.889 430.7924,26.5686 430.7924,30.2694 430.6961,34.2832 430.3663,38.7921 429.8468,43.4184 429.2544,47.8813 428.6444,52.3294 428.0501,56.6111 427.5048,60.6149 427.092,64.7178 426.8666,69.0066 426.7245,73.238 426.5351,77.4946 426.3314,81.7967 426.2043,85.9742 426.1504,90.25 426.0619,94.9683 425.7914,100.1649 425.2123,105.9343 424.2787,112.3081 423.0962,119.115 421.783,126.3873 420.2832,134.2892 418.6001,142.6943 417.0433,151.4186 415.75,160.4808 414.5726,169.6618 413.5445,178.7519 412.7051,187.6768 412.0538,196.2302 411.6402,204.2324 411.3412,211.3518 411.0678,217.5948 410.8938,223.4692 410.8199,229.0479 410.7884,234.1959 410.7751,238.9599 410.7694,243.3139 410.767,247.1661 410.766,250.5906 410.7655,253.749 410.7653,256.6987 410.7653,259.4903 410.7652,262.1291 410.7652,264.5231 410.7652,266.6383 410.7691,268.6423 410.9209,270.743 411.4033,272.9356 412.0955,275.1375 412.8307,277.3447 413.6496,279.5589 414.5638,281.7974 415.5281,284.1279 416.5272,286.6601 417.4775,289.3796 418.2935,292.1168 419.0004,294.74 419.5801,297.1596 419.9959,299.2906 420.2651,301.1178 420.4064,302.7055 420.4665,304.1009 420.492,305.3016 420.5029,306.3602 420.5075,307.3992 420.5094,308.4721 420.5103,309.6127 420.5106,310.8888 420.5108,312.2795 420.5108,313.766 420.5109,315.395 420.5109,317.1391 420.5109,318.9817 420.5109,321.0151 420.5109,323.3341 420.5109,325.906 420.5109,328.5606 420.5109,331.1189 420.5109,333.408 420.5109,335.3297 420.5109,336.8658 420.5109,338.0457 420.5109,338.9925 420.5109,339.8302 420.5109,340.6017 420.5109,341.3228 420.5109,342.0113 420.5109,342.6028 420.5109,343.0464 420.5109,343.426 420.5109,343.8998 420.5109,345.0377 420.5109,346.7826 420.5109,348.5896 420.5109,350.3895 420.5109,352.117 420.5109,353.7404 420.5109,355.1882 420.5109,356.4596 420.5109,357.635 420.5109,358.7671 420.5109,359.8796 420.5109,360.9874 420.5109,362.1292 420.5109,363.386 420.5109,364.7213 420.5109,365.9425 420.5109,366.9613 420.5109,367.8085 420.5109,368.4948 420.5109,369.0668 420.5109,369.558 420.5109,369.9813 420.5109,370.4105 420.5109,370.8794 420.5109,371.3863 420.5109,371.9527 420.5109,372.5717 420.5109,373.2404 420.5109,374.1001 420.3896,375.4304 419.8643,377.401 418.8111,380.001 417.4796,382.9751 416.2146,385.7994 415.1918,388.0366 414.4528,389.6051 413.9076,390.7368 413.4314,391.7276 413.0326,392.7477 412.7321,393.7692 412.4388,394.6485 412.1524,395.346 412.0211,395.8805 411.7919,396.2243 410.5199,396.4176 407.291,396.6535 401.8382,397.1134 391.323,397.8956 377.632,398.7812 364.5053,399.5085 350.9829,400.1153 336.9921,400.6027 322.5479,400.9115 307.911,401.0576 293.1056,401.1198 278.2709,401.1461 263.6722,401.1574 249.2605,401.1621 235.1901,401.1642 222.2469,401.165 211.0094,401.1654 201.1997,401.1507 192.4609,401.0749 184.5912,400.9485 177.3394,400.8551 170.5447,400.8154 164.1367,400.7985 158.1108,400.7913 152.459,400.7883 147.0645,400.787 141.6753,400.7864 136.1305,400.7862 130.4078,400.7861 124.5229,400.7861 118.6635,400.786 113.0497,400.786 107.7715,400.786 102.7591,400.786 97.4726,400.786 91.696,400.7414 85.7979,400.6343 79.7729,400.538 73.7653,400.4301 68.131,400.2205 62.8729,399.9255 57.9596,399.5967 53.2082,399.2722 48.4254,399.0177 43.6602,398.876 39.0084,398.8158 34.6165,398.7903 30.6606,398.7794 27.2154,398.7487 24.176,398.5993 21.4419,398.2839 18.9685,397.9118 16.7137,397.5788 14.6675,397.2797 12.7849,397 11.0547,396.7683 9.5876,396.6252 8.446,396.5594 7.6797,396.5314 7.5351,396.5617 7.9126,396.5969 8.2695,396.3551 8.4212,395.4065 8.4857,393.515 8.5131,390.9784 8.6017,388.0969 9.169,383.2904 10.0899,376.8718 10.797,370.3275 11.2651,363.4817 11.62,356.6976 11.9365,350.0265 12.3175,343.448 12.7316,336.9474 13.029,330.465 13.1823,323.9804 13.2475,317.4652 13.2752,311.2841 13.2869,305.6271 13.292,299.9101 13.2941,294.2097 13.1814,288.8686 12.8176,283.5264 12.2972,278.2606 11.8353,273.1217 11.5619,267.693 11.4458,261.846 11.3964,255.8299 11.3754,249.8771 11.3665,244.0046 11.3627,238.1823 11.3611,232.3913 11.3604,226.7946 11.3601,221.4343 11.36,216.0158 11.2059,210.441 10.8073,204.8408 10.4299,199.1578 10.2406,193.2672 10.1601,187.2412 10.1259,181.1082 10.1114,175.0771 10.0147,169.3115 9.7021,163.3201 9.2092,156.9871 8.73,150.7186 8.4359,144.4836 8.3109,138.3188 8.2578,132.3722 8.2352,126.3411 8.2256,120.3237 8.2215,114.5589 8.2198,108.6806 8.2191,102.3958 8.2188,95.4407 8.2186,88.1549 8.3553,81.5485 8.7176,76.1187 9.1316,71.9804 9.5675,69.0954 10.134,67.2665 10.7657,66.2275 11.2749,65.5714 11.5549,64.7815 11.6739,63.3556 11.7244,61.1409 11.7459,57.5951 11.7319,53.5604 11.6297,50.1315 11.463,46.9478 11.3421,44.0083 11.2907,41.2038 11.2689,38.4466 11.2596,35.7777 11.1825,33.1501 10.9379,30.6033 9.6323,23.7573 7.6578,13.985 L6.8186,9.8318 " stroke-linecap="round" fill="none" pointer-events="all" stroke="color(display-p3 0.9992 0.4376 0.45)" stroke-width="49.28" opacity="0.82"/>
		</g>
	</g>
	<g transform="matrix(1, 0, 0, 1, 1055.6156, -114.0298)" opacity="1">
		<g transform="scale(1)">
			<path d="M 0 0 m -0.1, 0 a 0.1,0.1 0 1,0 0.2,0 a 0.1,0.1 0 1,0 -0.2,0" stroke-linecap="round" fill="none" pointer-events="all" stroke="color(display-p3 0.1512 0.9414 0.9996)" stroke-width="42.544602698187035" opacity="0.82"/>
		</g>
	</g>
	<g transform="matrix(0.9877, -0.1564, 0.1564, 0.9877, 925.6393, -30.2286)" opacity="1">
		<g transform="scale(1)">
			<path d="M0,0 Q13.8317,2.0757 17.1637,2.5283 T22.2887,3.271 25.2231,3.7851 27.2133,4.1042 28.6589,4.2398 29.682,4.3204 30.4671,4.461 31.0635,4.7824 31.4868,5.2123 31.9082,5.5933 32.3739,5.9077 32.8213,6.1131 33.2875,6.2177 33.873,6.2823 39.2172,7.1377 47.926,8.5849 L51.6272,9.2 " stroke-linecap="round" fill="none" pointer-events="all" stroke="color(display-p3 0.9992 0.4376 0.45)" stroke-width="49.28" opacity="0.82"/>
		</g>
	</g>
	<g transform="matrix(1, 0, 0, 1, 830.8188, -35.2989)" opacity="1">
		<g transform="scale(1)">
			<path d="M0,0 Q16.2725,0.9315 20.3859,1.1294 T26.8656,1.5121 30.7724,1.8789 33.4189,2.1383 35.3659,2.283 36.7971,2.448 37.8798,2.6418 38.8517,2.8046 39.6356,2.9917 40.1499,3.3242 40.6502,3.7185 41.2395,4.073 41.8636,4.4163 42.6033,4.6858 43.4179,4.9268 44.2759,5.2334 49.7494,6.3268 58.4726,7.9431 L62.18,8.63 " stroke-linecap="round" fill="none" pointer-events="all" stroke="color(display-p3 0.1512 0.9414 0.9996)" stroke-width="49.28" opacity="0.82"/>
		</g>
	</g>
	<g transform="matrix(1, 0, 0, 1, 44.7986, 38.2539)" opacity="1">
		<g transform="scale(1)">
			<path d="M0,0 Q44.0105,0 62.1861,0 T95.9955,0 126.2316,0 155.8345,0 186.9193,0 220.8677,0.2703 257.5023,1.3712 293.2918,3.153 323.8348,4.6607 348.1229,5.4538 367.7604,5.7909 383.817,5.9341 396.9316,5.995 407.8557,6.0209 417.176,5.9571 425.1823,5.6483 431.9142,5.0513 437.3887,4.3749 441.7537,3.8833 445.3166,3.6342 448.2942,3.5283 450.8994,3.4833 453.6022,3.4641 456.729,3.456 460.1709,3.4526 463.905,3.4511 467.9156,3.4505 476.4109,3.7204 487.6243,4.1903 L492.39,4.39 " stroke-linecap="round" fill="none" pointer-events="all" stroke="color(display-p3 0.1512 0.9414 0.9996)" stroke-width="49.28" opacity="0.82"/>
		</g>
	</g>
	<g transform="matrix(1, 0, 0, 1, 37.049, 117.3852)" opacity="1">
		<g transform="scale(1)">
			<path d="M0,0 Q23.4498,0 31.7948,0 T47.5454,0 66.7006,-1.2401 87.8403,-3.8358 105.5613,-6.4857 121.5901,-9.0176 136.193,-11.4333 149.4454,-13.4984 161.8391,-15.1135 173.7818,-16.4959 185.5731,-17.727 197.1066,-18.9185 208.1516,-20.1873 218.8386,-21.4528 229.2309,-22.5238 239.2803,-23.2302 248.9314,-23.583 258.2949,-23.7329 267.6921,-23.9292 277.2084,-24.275 286.813,-24.6733 296.4201,-25.0828 305.7569,-25.3756 315.2825,-25.5001 325.7429,-25.553 336.8559,-25.5755 348.4128,-25.585 360.1638,-25.5891 371.4115,-25.5908 382.7677,-25.5915 394.8553,-25.5919 407.0898,-25.592 419.0965,-25.592 431.1193,-25.5921 443.81,-25.4733 457.1581,-25.1881 470.4067,-24.821 482.7907,-24.4082 494.1729,-24.0311 505.0381,-23.6775 515.2697,-23.3671 525.0331,-23.1937 535.0142,-23.12 544.9828,-23.0887 554.4168,-23.0754 563.3119,-23.0697 571.4458,-23.0673 578.4957,-23.0663 584.6496,-23.0659 589.9442,-23.0657 594.1509,-23.0656 597.32,-22.9882 599.6397,-22.7979 601.3269,-22.5596 602.6621,-22.3037 603.7617,-22.1175 604.6133,-22.0385 605.2923,-21.9468 605.8604,-21.7947 606.2926,-21.6223 606.5972,-21.3612 606.638,-20.9989 606.3651,-20.6405 605.7224,-20.1347 604.8446,-19.4917 603.969,-18.7737 603.0917,-17.8664 602.3264,-16.7462 601.754,-15.3449 601.4247,-13.7992 601.2847,-12.264 601.2253,-10.5675 601.2,-8.5346 601.1892,-6.309 601.1847,-3.9877 601.1827,-1.5512 601.1819,0.8239 601.1816,3.0983 601.1814,5.3353 601.1813,7.5897 601.1813,10.2464 601.1813,13.5519 601.1813,17.5198 601.1813,22.3685 601.1813,28.2931 601.1813,35.197 601.1813,42.8485 601.1813,50.9696 601.1813,59.1633 601.1813,67.4043 601.0469,76.3422 600.5867,86.3828 599.8617,96.6848 599.0349,106.6228 598.1837,116.5277 597.3543,126.0623 596.5934,134.9782 596.0174,144.1145 595.7027,153.6649 595.5044,163.0874 595.2401,172.5661 594.9558,182.146 594.7786,191.4485 594.7032,200.97 594.5798,211.4768 594.2022,223.0486 593.3941,235.896 592.0912,250.0893 590.4411,265.2468 588.6084,281.4411 586.5154,299.0371 584.1666,317.7536 581.994,337.1811 580.1892,357.3609 578.5461,377.8052 577.1115,398.0472 575.9401,417.9213 575.0311,436.968 574.4539,454.7876 574.0367,470.6411 573.6551,484.5432 573.4123,497.6243 573.3091,510.0471 573.2653,521.5107 573.2466,532.1192 573.2387,541.8147 573.2353,550.393 573.2339,558.0187 573.2333,565.0517 573.233,571.6202 573.2329,577.8365 573.2329,583.7127 573.2329,589.0438 573.2329,593.7538 573.2382,598.2164 573.4501,602.8942 574.1233,607.7768 575.0894,612.6801 576.1153,617.5949 577.2581,622.5257 578.5339,627.5103 579.8796,632.7 581.2739,638.3386 582.6001,644.3946 583.7388,650.4898 584.7253,656.331 585.5342,661.7191 586.1145,666.4643 586.4901,670.5332 586.6874,674.0687 586.7712,677.176 586.8068,679.8499 586.822,682.2071 586.8284,684.5208 586.8312,686.91 586.8323,689.4499 586.8328,692.2915 586.833,695.3883 586.8331,698.6985 586.8332,702.326 586.8332,706.2097 586.8332,710.3129 586.8332,714.8408 586.8332,720.0048 586.8332,725.732 586.8332,731.6433 586.8332,737.3401 586.8332,742.4375 586.8332,746.7168 586.8332,750.1374 586.8332,752.7649 586.8332,754.8732 586.8332,756.7386 586.8332,758.4567 586.8332,760.0624 586.8332,761.5954 586.8332,762.9126 586.8332,763.9005 586.8332,764.7457 586.8332,765.8009 586.8332,768.3346 586.8332,772.2203 586.8332,776.2442 586.8332,780.2523 586.8332,784.0989 586.8332,787.7141 586.8332,790.938 586.8332,793.7692 586.8332,796.3866 586.8332,798.9076 586.8332,801.3848 586.8332,803.8517 586.8332,806.3943 586.8332,809.1929 586.8332,812.1664 586.8332,814.8857 586.8332,817.1545 586.8332,819.0412 586.8332,820.5694 586.8332,821.8431 586.8332,822.9368 586.8332,823.8794 586.8332,824.8352 586.8332,825.8794 586.8332,827.0081 586.8332,828.2694 586.8332,829.6479 586.8332,831.1369 586.8332,833.0512 586.6639,836.0136 585.9308,840.4018 584.461,846.1915 582.6029,852.8143 580.8377,859.1035 579.4102,864.0853 578.379,867.5781 577.6182,870.0982 576.9536,872.3044 576.397,874.576 575.9777,876.8506 575.5684,878.8088 575.1687,880.3619 574.9854,881.5523 574.6657,882.3178 572.8905,882.7481 568.3845,883.2735 560.7749,884.2977 546.1008,886.0394 526.9946,888.0114 508.676,889.6311 489.8052,890.9824 470.2806,892.0676 450.1234,892.7553 429.6973,893.0807 409.036,893.219 388.3338,893.2778 367.961,893.3028 347.8491,893.3134 328.2135,893.3179 310.1509,893.3198 294.4687,893.3206 280.779,893.2878 268.5838,893.1192 257.6016,892.8377 247.4815,892.6296 237.9992,892.5412 229.0568,892.5036 220.6475,892.4877 212.7603,892.4809 205.2321,892.478 197.7114,892.4768 189.9734,892.4762 181.9873,892.476 173.7748,892.4759 165.5977,892.4759 157.7636,892.4759 150.3977,892.4759 143.4028,892.4759 136.0254,892.4758 127.9641,892.3764 119.733,892.1381 111.325,891.9235 102.9413,891.6832 95.0784,891.2165 87.7406,890.5597 80.884,889.8276 74.2533,889.1049 67.5789,888.5381 60.9289,888.2227 54.4371,888.0886 48.3082,888.0317 42.7876,888.0074 37.9798,887.9392 33.7382,887.6063 29.9227,886.9042 26.471,886.0755 23.3244,885.3339 20.4688,884.6679 17.8416,884.0452 15.4271,883.5292 13.3797,883.2105 11.7867,883.064 10.7173,883.0017 10.5154,883.0691 11.0423,883.1475 11.5403,882.6091 11.752,880.4967 11.842,876.2846 11.8802,870.6361 12.004,864.2196 12.7956,853.5163 14.0806,839.2233 15.0675,824.6504 15.7207,809.4062 16.216,794.2991 16.6576,779.4438 17.1893,764.7948 17.7673,750.3192 18.1823,735.8841 18.3962,721.4441 18.4872,706.9358 18.5258,693.1717 18.5423,680.5747 18.5492,667.8439 18.5522,655.1501 18.3949,643.2565 17.8873,631.3605 17.161,619.6347 16.5164,608.1911 16.135,596.1024 15.9729,583.0822 15.904,569.6855 15.8747,556.4298 15.8622,543.3528 15.8569,530.3876 15.8547,517.4921 15.8537,505.0293 15.8533,493.0931 15.8532,481.027 15.6381,468.613 15.0818,456.1423 14.5551,443.4873 14.291,430.37 14.1787,416.9514 14.131,403.2941 14.1107,389.8642 13.9758,377.0252 13.5395,363.6834 12.8516,349.581 12.183,335.6222 11.7725,321.7381 11.5981,308.0102 11.5239,294.7683 11.4924,281.3382 11.479,267.9384 11.4734,255.1013 11.4709,242.0115 11.4699,228.0163 11.4695,212.5287 11.4693,196.3046 11.66,181.5932 12.1657,169.5022 12.7434,160.2869 13.3517,153.8626 14.1423,149.79 15.0239,147.4764 15.7344,146.0153 16.1251,144.2564 16.2911,141.0812 16.3617,136.1495 16.3917,128.2535 16.3722,119.269 16.2295,111.6336 15.9969,104.544 15.8282,97.9984 15.7565,91.7531 15.726,85.6133 15.713,79.6703 15.6054,73.8192 15.2641,68.148 14.732,62.9123 14.1243,58.1572 13.5247,53.982 13.0307,50.1913 12.6327,46.4978 12.2001,42.945 11.2558,35.6627 10.0346,26.0001 L9.5156,21.8935 " stroke-linecap="round" fill="none" pointer-events="all" stroke="color(display-p3 0.1512 0.9414 0.9996)" stroke-width="49.28" opacity="0.82"/>
		</g>
	</g>
	<g transform="matrix(1, 0, 0, 1, 2, -338)" opacity="1">
		<image href="./Chromakopia Wikipedia.webp" width="1352" height="1380"/>
	</g>
	<g transform="matrix(1, 0, 0, 1, 325.2059, -86.2115)" opacity="1">
		<g transform="scale(1)">
			<path d="M0,0 Q-34.0745,0 -46.016,0 T-66.6378,0 -82.4343,0 -96.6027,-0.5577 -111.9508,-2.9367 -128.6713,-7.1131 -143.8333,-11.3749 -156.007,-14.802 -165.4474,-17.5292 -172.2368,-19.6485 -176.9392,-21.4118 -180.0217,-23.0667 -181.9182,-24.5464 -183.19,-25.8451 -184.0697,-27.1675 -184.6363,-28.6323 -185.0122,-30.2956 -185.2237,-32.3164 -185.3136,-34.6041 -185.3518,-36.9046 -185.368,-39.1157 -185.3749,-41.1221 -185.3261,-42.8229 -184.8568,-44.115 -183.5563,-44.9775 -181.451,-45.5539 -178.7537,-45.8909 -175.8018,-46.0341 -172.7389,-46.095 -169.2838,-46.1209 -165.1215,-46.1319 -159.9284,-46.1365 -153.7136,-46.1385 -146.7425,-46.0215 -138.3863,-45.5836 -127.7624,-44.8254 -114.7315,-43.7586 -99.2948,-42.4081 -82.7752,-41.0723 -67.0632,-39.875 -51.9446,-38.7854 -37.1098,-37.845 -23.3042,-37.0228 -10.5167,-36.3197 1.6542,-35.673 13.3904,-34.9496 24.9189,-34.1448 36.3275,-33.3227 47.4092,-32.5018 57.9494,-31.6498 67.995,-30.8708 77.7298,-30.2436 86.9874,-29.5918 95.5708,-28.7254 103.8503,-27.5407 111.9778,-26.0999 119.7329,-24.5647 127.1315,-22.9865 134.0536,-21.3038 140.0574,-19.5593 144.9838,-17.8376 148.9922,-16.137 152.2799,-14.5402 155.0429,-13.0163 157.393,-11.5091 159.4181,-10.1124 161.1471,-8.8374 162.5978,-7.6256 163.8008,-6.4465 164.7318,-5.2841 165.3949,-4.2123 165.8032,-3.2622 165.9767,-2.3151 165.6796,-1.4497 164.1935,-0.7714 161.1152,-0.2301 156.8946,0.1092 152.2345,0.2534 147.4939,0.3147 142.561,0.3407 136.5862,0.3518 128.938,0.3565 120.0324,0.3585 110.2388,0.3594 100.0965,0.3597 90.2631,0.3599 81.1275,0.36 73.1134,0.36 66.2345,0.36 60.2461,0.36 55.0906,0.36 50.6311,0.36 46.4215,0.36 42.2778,0.2594 33.8122,-0.7868 22.6247,-2.4311 L17.87,-3.13 " stroke-linecap="round" fill="none" pointer-events="all" stroke="color(display-p3 0.9992 0.4376 0.45)" stroke-width="49.28" opacity="0.35"/>
		</g>
	</g>
	<g transform="matrix(1, 0, 0, 1, 76.3444, -113.5509)" opacity="1">
		<g transform="scale(1)">
			<path d="M0,0 Q-13.8862,1.7595 -17.2683,2.1334 T-22.4155,2.6662 -25.1436,2.7546 -26.5848,2.3495 -27.2835,1.217 -27.5978,-0.8944 -27.7313,-3.6231 -27.7881,-6.3813 -27.8122,-8.9307 -27.7649,-11.19 -27.4516,-13.2399 -26.7204,-15.3071 -25.2884,-17.8186 -23.4867,-20.2344 -21.939,-21.8218 -20.6056,-22.8586 -19.3747,-23.5494 -18.1846,-23.9293 -17.0147,-24.0907 -15.8505,-24.1593 -14.6916,-24.1884 -13.5349,-24.1836 -12.4626,-23.9832 -11.5124,-23.3862 -10.6054,-22.3678 -9.7915,-21.0322 -9.0949,-19.5273 -8.4395,-17.9246 -7.8475,-16.2573 -7.3401,-14.6287 -6.8714,-13.1776 -6.4623,-11.799 -6.093,-10.3477 -5.6773,-8.8971 -5.2706,-7.4527 -4.9856,-6.051 -4.8386,-4.7653 -4.7762,-3.5576 -4.7496,-2.3831 -4.7383,-1.2284 -4.7335,-0.0937 -4.7315,1.0498 -4.7306,2.22 -4.7303,3.3901 -4.7301,4.5516 -4.73,5.7093 -4.73,6.8654 -4.73,8.0123 -4.73,9.0604 -4.73,9.9198 -4.7501,10.6875 -4.8737,11.4307 -5.2108,12.0513 -5.7365,12.5968 -6.3221,13.1736 -6.9103,13.7408 -7.5455,14.2291 -12.5937,12.8496 -20.7806,10.0709 L-24.26,8.89 " stroke-linecap="round" fill="none" pointer-events="all" stroke="color(display-p3 0.1512 0.9414 0.9996)" stroke-width="49.28" opacity="0.35"/>
		</g>
	</g>
	<g transform="matrix(1, 0, 0, 1, 394.2937, 175.6716)" opacity="1">
		<g transform="scale(1)">
			<path d="M0,0 Q18.8164,0 23.9218,0 T32.2962,0 38.9187,0 44.6861,0 49.0883,0 52.7052,0 55.6149,0 58.1321,0 60.6639,0 63.1835,0 65.5769,0 67.83,0 69.9813,0 72.1709,0 74.4451,0 76.7159,0 78.9089,0 81.0899,0 83.3395,0 85.6392,0 87.9576,0 90.2865,0 92.62,0 94.8633,0 96.9816,0 99.1387,0 101.3966,0 103.6998,0 106.1354,-0.1006 108.735,-0.3446 111.4044,-0.549 114.0981,-0.6358 116.6971,-0.6957 119.1794,-0.8362 121.6543,-1.0598 124.0945,-1.2266 126.4621,-1.2976 128.7173,-1.3277 130.7591,-1.3405 132.5656,-1.346 134.2142,-1.4403 135.7458,-1.6615 137.1882,-1.8446 138.5927,-1.9225 139.8837,-1.9556 141.0346,-1.9696 142.1311,-1.9756 143.2808,-1.9781 144.6213,-1.9792 146.2507,-1.9797 148.1896,-1.9799 150.3467,-1.9799 152.6308,-1.98 155.0793,-1.98 157.6871,-1.98 160.2732,-1.98 162.8316,-1.98 165.4782,-1.98 168.1833,-2.0116 170.8633,-2.1487 173.4196,-2.3593 175.9601,-2.5092 178.5964,-2.5729 181.1683,-2.6 183.6155,-2.6115 186.0072,-2.6164 188.3672,-2.6185 190.8217,-2.6193 193.4268,-2.6197 195.9854,-2.6199 198.5243,-2.6199 201.1625,-2.62 203.8247,-2.62 206.4943,-2.62 209.0961,-2.62 211.4772,-2.62 213.5672,-2.62 215.4442,-2.62 217.2069,-2.62 218.8947,-2.62 220.4745,-2.62 221.8428,-2.62 223.029,-2.62 224.138,-2.62 225.214,-2.62 226.2788,-2.62 227.3387,-2.62 228.3939,-2.62 233.7542,-1.171 242.1601,1.349 L245.7326,2.42 " stroke-linecap="round" fill="none" pointer-events="all" stroke="color(display-p3 0.972 0.8705 0.05)" stroke-width="49.28" opacity="0.35"/>
		</g>
	</g>
	<g transform="matrix(1, 0, 0, 1, 198.3235, -236.9895)" opacity="1">
		<g transform="scale(1)">
			<path d="M0,0 Q-30.3699,0 -41.4192,-0.0062 T-61.1094,-0.2398 -76.6757,-1.0134 -89.7488,-2.3154 -101.1325,-3.9576 -111.3206,-5.8825 -121.3604,-8.0306 -133.4206,-10.5809 -145.2389,-13.1763 -153.4384,-15.3681 -159.138,-17.4606 -163.2837,-19.715 -166.1876,-22.1723 -167.7609,-24.6725 -168.4296,-27.1518 -168.7137,-29.5479 -168.8345,-31.7499 -168.7128,-33.6962 -167.879,-35.375 -166.0643,-36.8741 -163.5973,-38.3444 -160.8601,-39.792 -157.9873,-41.1847 -154.7938,-42.6302 -151.035,-44.0406 -146.842,-45.3019 -142.6238,-46.5432 -138.5817,-47.7822 -134.4621,-48.979 -129.8806,-50.2258 -124.6182,-51.6177 -118.9488,-53.1042 -113.3625,-54.5278 -107.8323,-55.7535 -102.0491,-56.7013 -96.0268,-57.4691 -89.7231,-58.2388 -83.0158,-59.0835 -75.9711,-59.9189 -68.7898,-60.676 -61.6335,-61.3978 -53.9618,-62.117 -44.6523,-62.9341 -32.7295,-63.9804 -18.1804,-65.2396 -2.342,-66.5192 12.9853,-67.626 27.3688,-68.5521 41.6625,-69.3931 56.6518,-70.1383 73.1963,-70.7849 91.8967,-71.3113 111.7003,-71.6195 130.7892,-71.7505 148.8477,-71.8062 166.6689,-71.8299 185.8774,-71.8399 207.3572,-71.8442 230.1969,-71.846 253.9883,-71.7891 278.2049,-71.5504 302.7199,-71.1747 328.7597,-70.8026 356.8042,-70.2857 387.0364,-69.4907 418.8975,-68.5445 451.5338,-67.466 485.2887,-66.3189 519.2005,-65.322 552.5078,-64.5952 586.1048,-64.1069 619.562,-63.6334 652.0739,-63.0362 684.6754,-62.2875 718.5331,-61.2785 753.9628,-59.9361 790.0884,-58.3057 825.4577,-56.5054 860.8032,-54.5484 896.0832,-52.4732 928.8575,-50.3953 958.6153,-48.3656 986.1704,-46.2554 1011.1907,-43.8347 1033.0989,-41.1294 1052.0786,-38.2866 1068.5404,-35.3339 1082.2501,-32.4397 1093.0877,-29.8177 1101.6525,-27.4537 1108.6147,-25.3891 1114.1968,-23.6022 1118.5416,-21.9272 1121.8832,-20.3658 1124.12,-18.8649 1125.2645,-17.3383 1125.7509,-15.9183 1125.9576,-14.6755 1126.0455,-13.4792 1126.0136,-12.3047 1125.4394,-11.1911 1123.6382,-10.095 1120.5263,-9.0621 1116.5184,-8.1179 1111.9843,-7.2093 1107.0674,-6.3097 1101.6279,-5.4015 1095.7448,-4.533 1089.6732,-3.7474 1083.5353,-3.032 1077.1062,-2.398 1070.0135,-1.8316 1062.6388,-1.2548 1055.1235,-0.622 1046.6763,0.0677 1036.885,0.8742 1025.4772,1.7449 1012.3789,2.5892 997.8562,3.4904 981.5653,4.4302 963.2357,5.3616 942.683,6.3885 918.4794,7.5157 889.5058,8.6319 857.0031,9.6982 822.3222,10.7514 785.6567,11.8692 746.7427,13.1361 704.8937,14.4355 660.0532,15.4702 612.7024,16.0977 563.5095,16.4014 514.3089,16.5305 467.2161,16.5854 422.7423,16.6087 381.022,16.6186 344.3408,16.6228 311.9745,16.4184 279.6563,15.6387 247.5316,14.2391 217.9462,12.4998 191.6547,10.777 167.6836,9.2756 144.9687,7.9529 123.5558,6.7969 103.0424,5.7653 82.9251,4.7392 63.336,3.7855 45.0304,3.0111 28.6753,2.3314 14.2287,1.6569 1.2578,0.9578 -10.4354,0.1967 -23.9665,-0.7124 -37.8775,-1.6017 L-43.7897,-1.9796 " stroke-linecap="round" fill="none" pointer-events="all" stroke="color(display-p3 0.1512 0.9414 0.9996)" stroke-width="49.28" opacity="0.35"/>
		</g>
	</g>
	<g transform="matrix(1, 0, 0, 1, 1142.3692, -119.2848)" opacity="1">
		<g transform="scale(1)">
			<path d="M0,0 Q22.8371,0 30.8663,0 T45.1239,0 56.5211,0 66.5318,0.138 75.8332,0.6049 84.1959,1.3553 91.5526,2.3614 98.1607,3.5853 104.351,4.8703 110.3575,6.1552 116.24,7.2217 122.0351,7.9711 127.8008,8.5426 133.5067,8.8976 139.0164,9.0485 144.1233,9.219 148.6764,9.5042 157.0006,10.1515 167.769,10.9996 L172.3455,11.36 " stroke-linecap="round" fill="none" pointer-events="all" stroke="color(display-p3 0.1512 0.9414 0.9996)" stroke-width="49.28" opacity="0.35"/>
		</g>
	</g>
	<g transform="matrix(1, 0, 0, 1, 1016.2789, -24.6742)" opacity="1">
		<g transform="scale(1)">
			<path d="M0,0 Q30.5976,0 42.1196,0 T63.3724,0 82.0251,0 99.4886,0 116.2149,0 132.0994,0 146.8342,0 160.0953,0.0604 171.5959,0.3333 181.465,0.9035 190.2492,1.6921 198.4283,2.493 206.1572,3.0605 213.4312,3.342 220.3259,3.4616 226.6291,3.5124 232.0858,3.534 236.777,3.5432 240.8814,3.5471 244.6221,3.5488 248.2891,3.5495 252.0003,3.5498 255.7197,3.5499 259.4285,3.55 263.0556,3.55 266.6076,3.55 270.1241,3.55 277.9643,3.55 288.5669,3.55 L293.073,3.55 " stroke-linecap="round" fill="none" pointer-events="all" stroke="color(display-p3 0.1512 0.9414 0.9996)" stroke-width="49.28" opacity="0.35"/>
		</g>
	</g>
	<g transform="matrix(1, 0, 0, 1, 33.2967, -31.1464)" opacity="1">
		<g transform="scale(1)">
			<path d="M0,0 Q38.5135,0.299 52.8214,0.4028 T78.5605,0.8813 99.1797,1.9846 116.1107,3.3878 130.6032,4.4298 143.1364,4.9532 153.6063,5.1756 162.0264,5.2701 172.39,5.4857 183.9198,5.8115 L188.82,5.95 " stroke-linecap="round" fill="none" pointer-events="all" stroke="color(display-p3 0.1512 0.9414 0.9996)" stroke-width="49.28" opacity="0.35"/>
		</g>
	</g>
	<g transform="matrix(1, 0, 0, 1, 669.2531, 117.2625)" opacity="1">
		<g transform="scale(1)">
			<path d="M0,0 Q25.0873,0 34.0149,0 T50.8653,0 71.3581,-1.237 93.974,-3.8264 112.9323,-6.4697 130.0804,-8.9954 145.7029,-11.4051 159.8807,-13.4651 173.1398,-15.0762 185.9164,-16.4552 198.5311,-17.6833 210.87,-18.8719 222.6862,-20.1375 234.1194,-21.4 245.2374,-22.4682 255.9885,-23.173 266.3135,-23.5248 276.3309,-23.6744 286.3842,-23.8702 296.5651,-24.2151 306.8403,-24.6124 317.1182,-25.021 327.107,-25.3131 337.2977,-25.4372 348.4885,-25.49 360.3775,-25.5124 372.7414,-25.5219 385.313,-25.526 397.346,-25.5277 409.4952,-25.5285 422.4268,-25.5288 435.5157,-25.5289 448.3608,-25.5289 461.2231,-25.529 474.7999,-25.4105 489.0801,-25.126 503.2538,-24.7599 516.5025,-24.348 528.6796,-23.9719 540.3034,-23.6192 551.2495,-23.3095 561.6946,-23.1365 572.3726,-23.063 583.0374,-23.0318 593.1301,-23.0185 602.6463,-23.0128 611.3482,-23.0104 618.8904,-23.0094 625.4739,-23.009 631.1383,-23.0088 635.6386,-23.0087 639.029,-22.9316 641.5107,-22.7417 643.3158,-22.504 644.7442,-22.2487 645.9205,-22.063 646.8316,-21.9841 647.5581,-21.8927 648.1658,-21.7409 648.6282,-21.569 648.9541,-21.3085 648.9977,-20.9471 648.7058,-20.5897 648.0182,-20.0851 647.0791,-19.4436 646.1424,-18.7274 645.2038,-17.8224 644.3851,-16.7049 643.7727,-15.307 643.4204,-13.7652 643.2707,-12.2338 643.207,-10.5415 643.18,-8.5136 643.1685,-6.2935 643.1636,-3.9779 643.1615,-1.5473 643.1607,0.8219 643.1603,3.0906 643.1601,5.3222 643.1601,7.571 643.16,10.2211 643.16,13.5185 643.16,17.4766 643.16,22.3133 643.16,28.2234 643.16,35.1102 643.16,42.7428 643.16,50.8439 643.16,59.0174 643.16,67.2382 643.0163,76.154 642.5239,86.1698 641.7483,96.4464 640.8638,106.36 639.9531,116.2405 639.0658,125.7515 638.2517,134.6454 637.6355,143.7592 637.2988,153.2861 637.0868,162.6854 636.804,172.1407 636.4998,181.6969 636.3102,190.9765 636.2296,200.4746 636.0976,210.9555 635.6936,222.4987 634.829,235.3145 633.4352,249.4728 631.6698,264.5929 629.7092,280.7472 627.47,298.2999 624.9573,316.9702 622.633,336.3498 620.7021,356.4799 618.9443,376.8738 617.4094,397.0659 616.1563,416.891 615.1838,435.8908 614.5664,453.6664 614.12,469.4808 613.7117,483.3487 613.452,496.3975 613.3416,508.7897 613.2947,520.225 613.2747,530.8074 613.2663,540.479 613.2627,549.0361 613.2611,556.643 613.2605,563.6587 613.2602,570.211 613.2601,576.412 613.26,582.2737 613.26,587.5916 613.26,592.29 613.2658,596.7416 613.4924,601.4079 614.2127,606.2784 615.2461,611.1696 616.3437,616.0724 617.5663,620.991 618.9312,625.9633 620.3709,631.1402 621.8625,636.7649 623.2813,642.806 624.4996,648.8862 625.5549,654.713 626.4203,660.0878 627.0411,664.8213 627.443,668.8801 627.654,672.407 627.7437,675.5066 627.7818,678.1739 627.798,680.5253 627.8049,682.8333 627.8078,685.2165 627.8091,687.7502 627.8096,690.5848 627.8098,693.674 627.8099,696.9761 627.81,700.5945 627.81,704.4687 627.81,708.5618 627.81,713.0785 627.81,718.2298 627.81,723.9429 627.81,729.8396 627.81,735.5224 627.81,740.6072 627.81,744.8759 627.81,748.2881 627.81,750.9092 627.81,753.0122 627.81,754.873 627.81,756.5869 627.81,758.1886 627.81,759.7179 627.81,761.0318 627.81,762.0173 627.81,762.8604 627.81,763.913 627.81,766.4405 627.81,770.3166 627.81,774.3306 627.81,778.3287 627.81,782.1659 627.81,785.7721 627.81,788.9881 627.81,791.8124 627.81,794.4233 627.81,796.938 627.81,799.4092 627.81,801.87 627.81,804.4063 627.81,807.198 627.81,810.1642 627.81,812.8768 627.81,815.14 627.81,817.022 627.81,818.5465 627.81,819.817 627.81,820.908 627.81,821.8483 627.81,822.8017 627.81,823.8433 627.81,824.9693 627.81,826.2275 627.81,827.6026 627.81,829.0879 627.81,830.9975 627.6289,833.9526 626.8446,838.33 625.2722,844.1054 623.2843,850.7119 621.3958,856.9856 619.8687,861.9551 618.7655,865.4392 617.9516,867.9531 617.2405,870.1539 616.6451,872.4199 616.1965,874.6889 615.7587,876.6423 615.3311,878.1916 615.1349,879.379 614.7929,880.1426 612.8937,880.5719 608.0731,881.0959 599.9322,882.1176 584.2334,883.855 563.7931,885.8222 544.1953,887.4379 524.0069,888.7858 503.1189,889.8684 481.5542,890.5544 459.7018,890.879 437.5978,891.017 415.45,891.0756 393.6546,891.1005 372.1383,891.1111 351.1317,891.1156 331.8078,891.1175 315.0306,891.1183 300.385,891.0856 287.3382,890.9174 275.5891,890.6366 264.7624,890.429 254.618,890.3408 245.0512,890.3034 236.0546,890.2874 227.6167,890.2807 219.5629,890.2778 211.517,890.2766 203.2387,890.276 194.695,890.2758 185.909,890.2757 177.1609,890.2757 168.7798,890.2757 160.8995,890.2757 153.4162,890.2757 145.5236,890.2757 136.8994,890.1765 128.0936,889.9387 119.0985,889.7247 110.1294,889.485 101.7175,889.0194 93.8673,888.3642 86.5319,887.6339 79.4382,886.913 72.2977,886.3477 65.1834,886.033 58.2383,885.8993 51.6814,885.8424 45.7754,885.8183 40.6318,885.7501 36.094,885.4181 32.0121,884.7177 28.3194,883.8911 24.9531,883.1513 21.8981,882.487 19.0874,881.8658 16.5043,881.3511 14.3139,881.0331 12.6097,880.887 11.4656,880.8249 11.2496,880.8921 11.8133,880.9703 12.3462,880.4332 12.5726,878.326 12.6689,874.1243 12.7098,868.4897 12.8422,862.0891 13.689,851.4121 15.0638,837.1544 16.1196,822.6174 16.8185,807.4107 17.3483,792.341 17.8208,777.5223 18.3896,762.9094 19.008,748.4695 19.4519,734.0699 19.6808,719.6656 19.7781,705.193 19.8194,691.4629 19.837,678.8969 19.8445,666.1974 19.8477,653.535 19.6794,641.6707 19.1364,629.804 18.3593,618.1071 17.6697,606.6917 17.2616,594.6328 17.0882,581.6448 17.0145,568.2811 16.9832,555.058 16.9698,542.0133 16.9642,529.08 16.9618,516.2163 16.9608,503.7843 16.9603,491.8775 16.9601,479.8411 16.7301,467.4577 16.1349,455.0178 15.5715,442.394 15.2889,429.309 15.1688,415.9235 15.1177,402.2999 15.096,388.9031 14.9517,376.0958 14.485,362.7868 13.749,348.7192 13.0337,334.7948 12.5946,320.945 12.4079,307.2508 12.3286,294.0417 12.2949,280.6446 12.2806,267.2779 12.2745,254.4724 12.2719,241.4149 12.2708,227.4542 12.2703,212.0048 12.2701,195.8207 12.4742,181.1455 13.0152,169.0843 13.6332,159.8918 14.284,153.4833 15.1298,149.4207 16.0729,147.1128 16.8331,145.6553 17.2511,143.9008 17.4287,140.7334 17.5042,135.8139 17.5363,127.9374 17.5154,118.9749 17.3628,111.3584 17.1139,104.2862 16.9334,97.7568 16.8567,91.5269 16.8241,85.4023 16.8102,79.4739 16.6951,73.6372 16.3299,67.9799 15.7607,62.7572 15.1106,58.0138 14.4691,53.8489 13.9406,50.0676 13.5148,46.3832 13.052,42.8392 12.0417,35.5748 10.7353,25.936 L10.18,21.8396 " stroke-linecap="round" fill="none" pointer-events="all" stroke="color(display-p3 0.1512 0.9414 0.9996)" stroke-width="49.28" opacity="0.35"/>
		</g>
	</g>
	<g transform="matrix(1, 0, 0, 1, 873.1612, 148.2464)" opacity="1">
		<g transform="scale(1)">
			<path d="M0,0 Q27.715,-0.299 38.3798,-0.3625 T59.1547,-0.4531 79.2827,-0.4916 98.1239,-0.5079 114.5092,-0.5149 129.5746,-0.7737 144.0045,-1.4443 156.8848,-2.083 168.2699,-2.4033 178.7148,-2.5394 188.2829,-2.5972 196.7194,-2.7311 203.8699,-3.018 209.8643,-3.3613 214.8471,-3.694 219.052,-3.9217 222.7654,-4.1105 230.772,-4.3747 241.6267,-4.624 L246.24,-4.73 " stroke-linecap="round" fill="none" pointer-events="all" stroke="color(display-p3 0.9992 0.4376 0.45)" stroke-width="49.28" opacity="0.35"/>
		</g>
	</g>
	<g transform="matrix(1, 0, 0, 1, 1002.2245, 650.1926)" opacity="1">
		<g transform="scale(1)">
			<path d="M0,0 Q27.5186,0 36.2378,0 T51.3437,0 62.9831,0 73.1083,0 82.6961,0 92.0749,0.0518 101.3141,0.2491 110.1827,0.5285 118.2978,0.7191 125.417,0.8001 131.6617,0.8346 137.4719,0.8492 143.1603,0.8554 148.7559,0.858 154.2107,0.8592 159.4343,0.8596 164.4004,0.8599 169.0085,0.8599 173.1267,0.86 176.8894,0.86 180.4141,0.86 183.6761,0.86 186.8264,0.86 190.0837,0.86 193.3888,0.8312 196.6636,0.6925 199.9786,0.3633 207.2392,-0.4033 216.9511,-1.3554 L221.0787,-1.76 " stroke-linecap="round" fill="none" pointer-events="all" stroke="color(display-p3 0.972 0.8705 0.05)" stroke-width="49.28" opacity="0.35"/>
		</g>
	</g>
	<g transform="matrix(1, 0, 0, 1, 795.2524, 965.1175)" opacity="1">
		<g transform="scale(1)">
			<path d="M0,0 Q31.1003,0 41.9442,0 T61.4105,0 81.318,0 101.2791,0 117.1128,0 129.9644,0 140.5007,0 149.2472,0 156.4272,0 162.805,-0.0455 169.0401,-0.2898 175.3999,-0.712 181.8334,-1.0638 188.0535,-1.3737 193.7478,-1.8597 198.7219,-2.5114 203.0113,-3.1738 206.7781,-3.7522 214.684,-4.2325 225.3548,-4.6102 L229.8898,-4.7708 " stroke-linecap="round" fill="none" pointer-events="all" stroke="color(display-p3 0.972 0.8705 0.05)" stroke-width="49.28" opacity="0.35"/>
		</g>
	</g>
	<g transform="matrix(1, 0, 0, 1, 1099.0547, -114.3959)" opacity="1">
		<g transform="scale(1)">
			<path d="M 0 0 m -0.1, 0 a 0.1,0.1 0 1,0 0.2,0 a 0.1,0.1 0 1,0 -0.2,0" stroke-linecap="round" fill="none" pointer-events="all" stroke="color(display-p3 0.9992 0.4376 0.45)" stroke-width="52.524534245679774" opacity="0.35"/>
		</g>
	</g>
	<g transform="matrix(1, 0, 0, 1, 784.5876, 196.759)" opacity="1">
		<g transform="scale(1)">
			<path d="M0,0 Q21.6217,0 28.9816,0 T45.6336,-0.5569 62.0252,-1.7226 75.2521,-2.9125 86.9626,-4.0496 97.5221,-5.1344 107.0591,-6.0618 115.9573,-6.787 124.5225,-7.4079 132.975,-7.9607 141.241,-8.4958 149.1562,-9.0655 156.8144,-9.6339 164.2614,-10.1148 171.4626,-10.4321 178.3784,-10.5905 185.0881,-10.6578 191.8219,-10.7459 198.641,-10.9012 205.5234,-11.0801 212.4077,-11.264 219.0982,-11.3955 225.924,-11.4514 233.4197,-11.4751 241.383,-11.4852 249.6644,-11.4895 258.0849,-11.4913 266.1447,-11.4921 274.2823,-11.4924 282.944,-11.4926 291.711,-11.4926 300.3147,-11.4927 308.93,-11.4927 318.0238,-11.4394 327.5888,-11.3113 337.0824,-11.1464 345.9564,-10.961 354.1127,-10.7917 361.8985,-10.6329 369.2302,-10.4935 376.2264,-10.4156 383.3786,-10.3825 390.5219,-10.3685 397.2821,-10.3625 403.6561,-10.36 409.4847,-10.3589 414.5364,-10.3584 418.9461,-10.3582 422.7402,-10.3582 425.7546,-10.3581 428.0255,-10.3234 429.6877,-10.2379 430.8968,-10.1309 431.8535,-10.016 432.6414,-9.9324 433.2517,-9.8969 433.7382,-9.8557 434.1453,-9.7874 434.455,-9.71 434.6733,-9.5927 434.7026,-9.43 434.507,-9.2691 434.0465,-9.0419 433.4175,-8.7532 432.79,-8.4307 432.1613,-8.0233 431.613,-7.5203 431.2028,-6.8909 430.9668,-6.1968 430.8665,-5.5074 430.8239,-4.7456 430.8058,-3.8327 430.7981,-2.8332 430.7948,-1.7908 430.7934,-0.6966 430.7928,0.37 430.7926,1.3913 430.7925,2.396 430.7924,3.4083 430.7924,4.6014 430.7924,6.0858 430.7924,7.8676 430.7924,10.0451 430.7924,12.7056 430.7924,15.806 430.7924,19.2421 430.7924,22.889 430.7924,26.5686 430.7924,30.2694 430.6961,34.2832 430.3663,38.7921 429.8468,43.4184 429.2544,47.8813 428.6444,52.3294 428.0501,56.6111 427.5048,60.6149 427.092,64.7178 426.8666,69.0066 426.7245,73.238 426.5351,77.4946 426.3314,81.7967 426.2043,85.9742 426.1504,90.25 426.0619,94.9683 425.7914,100.1649 425.2123,105.9343 424.2787,112.3081 423.0962,119.115 421.783,126.3873 420.2832,134.2892 418.6001,142.6943 417.0433,151.4186 415.75,160.4808 414.5726,169.6618 413.5445,178.7519 412.7051,187.6768 412.0538,196.2302 411.6402,204.2324 411.3412,211.3518 411.0678,217.5948 410.8938,223.4692 410.8199,229.0479 410.7884,234.1959 410.7751,238.9599 410.7694,243.3139 410.767,247.1661 410.766,250.5906 410.7655,253.749 410.7653,256.6987 410.7653,259.4903 410.7652,262.1291 410.7652,264.5231 410.7652,266.6383 410.7691,268.6423 410.9209,270.743 411.4033,272.9356 412.0955,275.1375 412.8307,277.3447 413.6496,279.5589 414.5638,281.7974 415.5281,284.1279 416.5272,286.6601 417.4775,289.3796 418.2935,292.1168 419.0004,294.74 419.5801,297.1596 419.9959,299.2906 420.2651,301.1178 420.4064,302.7055 420.4665,304.1009 420.492,305.3016 420.5029,306.3602 420.5075,307.3992 420.5094,308.4721 420.5103,309.6127 420.5106,310.8888 420.5108,312.2795 420.5108,313.766 420.5109,315.395 420.5109,317.1391 420.5109,318.9817 420.5109,321.0151 420.5109,323.3341 420.5109,325.906 420.5109,328.5606 420.5109,331.1189 420.5109,333.408 420.5109,335.3297 420.5109,336.8658 420.5109,338.0457 420.5109,338.9925 420.5109,339.8302 420.5109,340.6017 420.5109,341.3228 420.5109,342.0113 420.5109,342.6028 420.5109,343.0464 420.5109,343.426 420.5109,343.8998 420.5109,345.0377 420.5109,346.7826 420.5109,348.5896 420.5109,350.3895 420.5109,352.117 420.5109,353.7404 420.5109,355.1882 420.5109,356.4596 420.5109,357.635 420.5109,358.7671 420.5109,359.8796 420.5109,360.9874 420.5109,362.1292 420.5109,363.386 420.5109,364.7213 420.5109,365.9425 420.5109,366.9613 420.5109,367.8085 420.5109,368.4948 420.5109,369.0668 420.5109,369.558 420.5109,369.9813 420.5109,370.4105 420.5109,370.8794 420.5109,371.3863 420.5109,371.9527 420.5109,372.5717 420.5109,373.2404 420.5109,374.1001 420.3896,375.4304 419.8643,377.401 418.8111,380.001 417.4796,382.9751 416.2146,385.7994 415.1918,388.0366 414.4528,389.6051 413.9076,390.7368 413.4314,391.7276 413.0326,392.7477 412.7321,393.7692 412.4388,394.6485 412.1524,395.346 412.0211,395.8805 411.7919,396.2243 410.5199,396.4176 407.291,396.6535 401.8382,397.1134 391.323,397.8956 377.632,398.7812 364.5053,399.5085 350.9829,400.1153 336.9921,400.6027 322.5479,400.9115 307.911,401.0576 293.1056,401.1198 278.2709,401.1461 263.6722,401.1574 249.2605,401.1621 235.1901,401.1642 222.2469,401.165 211.0094,401.1654 201.1997,401.1507 192.4609,401.0749 184.5912,400.9485 177.3394,400.8551 170.5447,400.8154 164.1367,400.7985 158.1108,400.7913 152.459,400.7883 147.0645,400.787 141.6753,400.7864 136.1305,400.7862 130.4078,400.7861 124.5229,400.7861 118.6635,400.786 113.0497,400.786 107.7715,400.786 102.7591,400.786 97.4726,400.786 91.696,400.7414 85.7979,400.6343 79.7729,400.538 73.7653,400.4301 68.131,400.2205 62.8729,399.9255 57.9596,399.5967 53.2082,399.2722 48.4254,399.0177 43.6602,398.876 39.0084,398.8158 34.6165,398.7903 30.6606,398.7794 27.2154,398.7487 24.176,398.5993 21.4419,398.2839 18.9685,397.9118 16.7137,397.5788 14.6675,397.2797 12.7849,397 11.0547,396.7683 9.5876,396.6252 8.446,396.5594 7.6797,396.5314 7.5351,396.5617 7.9126,396.5969 8.2695,396.3551 8.4212,395.4065 8.4857,393.515 8.5131,390.9784 8.6017,388.0969 9.169,383.2904 10.0899,376.8718 10.797,370.3275 11.2651,363.4817 11.62,356.6976 11.9365,350.0265 12.3175,343.448 12.7316,336.9474 13.029,330.465 13.1823,323.9804 13.2475,317.4652 13.2752,311.2841 13.2869,305.6271 13.292,299.9101 13.2941,294.2097 13.1814,288.8686 12.8176,283.5264 12.2972,278.2606 11.8353,273.1217 11.5619,267.693 11.4458,261.846 11.3964,255.8299 11.3754,249.8771 11.3665,244.0046 11.3627,238.1823 11.3611,232.3913 11.3604,226.7946 11.3601,221.4343 11.36,216.0158 11.2059,210.441 10.8073,204.8408 10.4299,199.1578 10.2406,193.2672 10.1601,187.2412 10.1259,181.1082 10.1114,175.0771 10.0147,169.3115 9.7021,163.3201 9.2092,156.9871 8.73,150.7186 8.4359,144.4836 8.3109,138.3188 8.2578,132.3722 8.2352,126.3411 8.2256,120.3237 8.2215,114.5589 8.2198,108.6806 8.2191,102.3958 8.2188,95.4407 8.2186,88.1549 8.3553,81.5485 8.7176,76.1187 9.1316,71.9804 9.5675,69.0954 10.134,67.2665 10.7657,66.2275 11.2749,65.5714 11.5549,64.7815 11.6739,63.3556 11.7244,61.1409 11.7459,57.5951 11.7319,53.5604 11.6297,50.1315 11.463,46.9478 11.3421,44.0083 11.2907,41.2038 11.2689,38.4466 11.2596,35.7777 11.1825,33.1501 10.9379,30.6033 9.6323,23.7573 7.6578,13.985 L6.8186,9.8318 " stroke-linecap="round" fill="none" pointer-events="all" stroke="color(display-p3 0.9992 0.4376 0.45)" stroke-width="49.28" opacity="0.35"/>
		</g>
	</g>
	<g transform="matrix(1, 0, 0, 1, 1055.6156, -114.0298)" opacity="1">
		<g transform="scale(1)">
			<path d="M 0 0 m -0.1, 0 a 0.1,0.1 0 1,0 0.2,0 a 0.1,0.1 0 1,0 -0.2,0" stroke-linecap="round" fill="none" pointer-events="all" stroke="color(display-p3 0.1512 0.9414 0.9996)" stroke-width="42.544602698187035" opacity="0.35"/>
		</g>
	</g>
	<g transform="matrix(0.9877, -0.1564, 0.1564, 0.9877, 925.6393, -30.2286)" opacity="1">
		<g transform="scale(1)">
			<path d="M0,0 Q13.8317,2.0757 17.1637,2.5283 T22.2887,3.271 25.2231,3.7851 27.2133,4.1042 28.6589,4.2398 29.682,4.3204 30.4671,4.461 31.0635,4.7824 31.4868,5.2123 31.9082,5.5933 32.3739,5.9077 32.8213,6.1131 33.2875,6.2177 33.873,6.2823 39.2172,7.1377 47.926,8.5849 L51.6272,9.2 " stroke-linecap="round" fill="none" pointer-events="all" stroke="color(display-p3 0.9992 0.4376 0.45)" stroke-width="49.28" opacity="0.35"/>
		</g>
	</g>
	<g transform="matrix(1, 0, 0, 1, 830.8188, -35.2989)" opacity="1">
		<g transform="scale(1)">
			<path d="M0,0 Q16.2725,0.9315 20.3859,1.1294 T26.8656,1.5121 30.7724,1.8789 33.4189,2.1383 35.3659,2.283 36.7971,2.448 37.8798,2.6418 38.8517,2.8046 39.6356,2.9917 40.1499,3.3242 40.6502,3.7185 41.2395,4.073 41.8636,4.4163 42.6033,4.6858 43.4179,4.9268 44.2759,5.2334 49.7494,6.3268 58.4726,7.9431 L62.18,8.63 " stroke-linecap="round" fill="none" pointer-events="all" stroke="color(display-p3 0.1512 0.9414 0.9996)" stroke-width="49.28" opacity="0.35"/>
		</g>
	</g>
	<g transform="matrix(1, 0, 0, 1, 44.7986, 38.2539)" opacity="1">
		<g transform="scale(1)">
			<path d="M0,0 Q44.0105,0 62.1861,0 T95.9955,0 126.2316,0 155.8345,0 186.9193,0 220.8677,0.2703 257.5023,1.3712 293.2918,3.153 323.8348,4.6607 348.1229,5.4538 367.7604,5.7909 383.817,5.9341 396.9316,5.995 407.8557,6.0209 417.176,5.9571 425.1823,5.6483 431.9142,5.0513 437.3887,4.3749 441.7537,3.8833 445.3166,3.6342 448.2942,3.5283 450.8994,3.4833 453.6022,3.4641 456.729,3.456 460.1709,3.4526 463.905,3.4511 467.9156,3.4505 476.4109,3.7204 487.6243,4.1903 L492.39,4.39 " stroke-linecap="round" fill="none" pointer-events="all" stroke="color(display-p3 0.1512 0.9414 0.9996)" stroke-width="49.28" opacity="0.35"/>
		</g>
	</g>
	<g transform="matrix(1, 0, 0, 1, 37.049, 117.3852)" opacity="1">
		<g transform="scale(1)">
			<path d="M0,0 Q23.4498,0 31.7948,0 T47.5454,0 66.7006,-1.2401 87.8403,-3.8358 105.5613,-6.4857 121.5901,-9.0176 136.193,-11.4333 149.4454,-13.4984 161.8391,-15.1135 173.7818,-16.4959 185.5731,-17.727 197.1066,-18.9185 208.1516,-20.1873 218.8386,-21.4528 229.2309,-22.5238 239.2803,-23.2302 248.9314,-23.583 258.2949,-23.7329 267.6921,-23.9292 277.2084,-24.275 286.813,-24.6733 296.4201,-25.0828 305.7569,-25.3756 315.2825,-25.5001 325.7429,-25.553 336.8559,-25.5755 348.4128,-25.585 360.1638,-25.5891 371.4115,-25.5908 382.7677,-25.5915 394.8553,-25.5919 407.0898,-25.592 419.0965,-25.592 431.1193,-25.5921 443.81,-25.4733 457.1581,-25.1881 470.4067,-24.821 482.7907,-24.4082 494.1729,-24.0311 505.0381,-23.6775 515.2697,-23.3671 525.0331,-23.1937 535.0142,-23.12 544.9828,-23.0887 554.4168,-23.0754 563.3119,-23.0697 571.4458,-23.0673 578.4957,-23.0663 584.6496,-23.0659 589.9442,-23.0657 594.1509,-23.0656 597.32,-22.9882 599.6397,-22.7979 601.3269,-22.5596 602.6621,-22.3037 603.7617,-22.1175 604.6133,-22.0385 605.2923,-21.9468 605.8604,-21.7947 606.2926,-21.6223 606.5972,-21.3612 606.638,-20.9989 606.3651,-20.6405 605.7224,-20.1347 604.8446,-19.4917 603.969,-18.7737 603.0917,-17.8664 602.3264,-16.7462 601.754,-15.3449 601.4247,-13.7992 601.2847,-12.264 601.2253,-10.5675 601.2,-8.5346 601.1892,-6.309 601.1847,-3.9877 601.1827,-1.5512 601.1819,0.8239 601.1816,3.0983 601.1814,5.3353 601.1813,7.5897 601.1813,10.2464 601.1813,13.5519 601.1813,17.5198 601.1813,22.3685 601.1813,28.2931 601.1813,35.197 601.1813,42.8485 601.1813,50.9696 601.1813,59.1633 601.1813,67.4043 601.0469,76.3422 600.5867,86.3828 599.8617,96.6848 599.0349,106.6228 598.1837,116.5277 597.3543,126.0623 596.5934,134.9782 596.0174,144.1145 595.7027,153.6649 595.5044,163.0874 595.2401,172.5661 594.9558,182.146 594.7786,191.4485 594.7032,200.97 594.5798,211.4768 594.2022,223.0486 593.3941,235.896 592.0912,250.0893 590.4411,265.2468 588.6084,281.4411 586.5154,299.0371 584.1666,317.7536 581.994,337.1811 580.1892,357.3609 578.5461,377.8052 577.1115,398.0472 575.9401,417.9213 575.0311,436.968 574.4539,454.7876 574.0367,470.6411 573.6551,484.5432 573.4123,497.6243 573.3091,510.0471 573.2653,521.5107 573.2466,532.1192 573.2387,541.8147 573.2353,550.393 573.2339,558.0187 573.2333,565.0517 573.233,571.6202 573.2329,577.8365 573.2329,583.7127 573.2329,589.0438 573.2329,593.7538 573.2382,598.2164 573.4501,602.8942 574.1233,607.7768 575.0894,612.6801 576.1153,617.5949 577.2581,622.5257 578.5339,627.5103 579.8796,632.7 581.2739,638.3386 582.6001,644.3946 583.7388,650.4898 584.7253,656.331 585.5342,661.7191 586.1145,666.4643 586.4901,670.5332 586.6874,674.0687 586.7712,677.176 586.8068,679.8499 586.822,682.2071 586.8284,684.5208 586.8312,686.91 586.8323,689.4499 586.8328,692.2915 586.833,695.3883 586.8331,698.6985 586.8332,702.326 586.8332,706.2097 586.8332,710.3129 586.8332,714.8408 586.8332,720.0048 586.8332,725.732 586.8332,731.6433 586.8332,737.3401 586.8332,742.4375 586.8332,746.7168 586.8332,750.1374 586.8332,752.7649 586.8332,754.8732 586.8332,756.7386 586.8332,758.4567 586.8332,760.0624 586.8332,761.5954 586.8332,762.9126 586.8332,763.9005 586.8332,764.7457 586.8332,765.8009 586.8332,768.3346 586.8332,772.2203 586.8332,776.2442 586.8332,780.2523 586.8332,784.0989 586.8332,787.7141 586.8332,790.938 586.8332,793.7692 586.8332,796.3866 586.8332,798.9076 586.8332,801.3848 586.8332,803.8517 586.8332,806.3943 586.8332,809.1929 586.8332,812.1664 586.8332,814.8857 586.8332,817.1545 586.8332,819.0412 586.8332,820.5694 586.8332,821.8431 586.8332,822.9368 586.8332,823.8794 586.8332,824.8352 586.8332,825.8794 586.8332,827.0081 586.8332,828.2694 586.8332,829.6479 586.8332,831.1369 586.8332,833.0512 586.6639,836.0136 585.9308,840.4018 584.461,846.1915 582.6029,852.8143 580.8377,859.1035 579.4102,864.0853 578.379,867.5781 577.6182,870.0982 576.9536,872.3044 576.397,874.576 575.9777,876.8506 575.5684,878.8088 575.1687,880.3619 574.9854,881.5523 574.6657,882.3178 572.8905,882.7481 568.3845,883.2735 560.7749,884.2977 546.1008,886.0394 526.9946,888.0114 508.676,889.6311 489.8052,890.9824 470.2806,892.0676 450.1234,892.7553 429.6973,893.0807 409.036,893.219 388.3338,893.2778 367.961,893.3028 347.8491,893.3134 328.2135,893.3179 310.1509,893.3198 294.4687,893.3206 280.779,893.2878 268.5838,893.1192 257.6016,892.8377 247.4815,892.6296 237.9992,892.5412 229.0568,892.5036 220.6475,892.4877 212.7603,892.4809 205.2321,892.478 197.7114,892.4768 189.9734,892.4762 181.9873,892.476 173.7748,892.4759 165.5977,892.4759 157.7636,892.4759 150.3977,892.4759 143.4028,892.4759 136.0254,892.4758 127.9641,892.3764 119.733,892.1381 111.325,891.9235 102.9413,891.6832 95.0784,891.2165 87.7406,890.5597 80.884,889.8276 74.2533,889.1049 67.5789,888.5381 60.9289,888.2227 54.4371,888.0886 48.3082,888.0317 42.7876,888.0074 37.9798,887.9392 33.7382,887.6063 29.9227,886.9042 26.471,886.0755 23.3244,885.3339 20.4688,884.6679 17.8416,884.0452 15.4271,883.5292 13.3797,883.2105 11.7867,883.064 10.7173,883.0017 10.5154,883.0691 11.0423,883.1475 11.5403,882.6091 11.752,880.4967 11.842,876.2846 11.8802,870.6361 12.004,864.2196 12.7956,853.5163 14.0806,839.2233 15.0675,824.6504 15.7207,809.4062 16.216,794.2991 16.6576,779.4438 17.1893,764.7948 17.7673,750.3192 18.1823,735.8841 18.3962,721.4441 18.4872,706.9358 18.5258,693.1717 18.5423,680.5747 18.5492,667.8439 18.5522,655.1501 18.3949,643.2565 17.8873,631.3605 17.161,619.6347 16.5164,608.1911 16.135,596.1024 15.9729,583.0822 15.904,569.6855 15.8747,556.4298 15.8622,543.3528 15.8569,530.3876 15.8547,517.4921 15.8537,505.0293 15.8533,493.0931 15.8532,481.027 15.6381,468.613 15.0818,456.1423 14.5551,443.4873 14.291,430.37 14.1787,416.9514 14.131,403.2941 14.1107,389.8642 13.9758,377.0252 13.5395,363.6834 12.8516,349.581 12.183,335.6222 11.7725,321.7381 11.5981,308.0102 11.5239,294.7683 11.4924,281.3382 11.479,267.9384 11.4734,255.1013 11.4709,242.0115 11.4699,228.0163 11.4695,212.5287 11.4693,196.3046 11.66,181.5932 12.1657,169.5022 12.7434,160.2869 13.3517,153.8626 14.1423,149.79 15.0239,147.4764 15.7344,146.0153 16.1251,144.2564 16.2911,141.0812 16.3617,136.1495 16.3917,128.2535 16.3722,119.269 16.2295,111.6336 15.9969,104.544 15.8282,97.9984 15.7565,91.7531 15.726,85.6133 15.713,79.6703 15.6054,73.8192 15.2641,68.148 14.732,62.9123 14.1243,58.1572 13.5247,53.982 13.0307,50.1913 12.6327,46.4978 12.2001,42.945 11.2558,35.6627 10.0346,26.0001 L9.5156,21.8935 " stroke-linecap="round" fill="none" pointer-events="all" stroke="color(display-p3 0.1512 0.9414 0.9996)" stroke-width="49.28" opacity="0.35"/>
		</g>
	</g>
</svg>