<svg xmlns="http://www.w3.org/2000/svg" direction="ltr" width="1416.0000000000002" height="1444" viewBox="1360.9014231687895 -370.0000000000002 1416.0000000000002 1444" stroke-linecap="round" stroke-linejoin="round" data-color-mode="light" class="tl-container tl-theme__force-sRGB tl-theme__light" style="background-color: rgb(249, 250, 251);">
	<g transform="matrix(1, 0, 0, 1, 1588.4314, -236.9895)" opacity="1">
		<g transform="scale(1)">
			<path d="M0,0 Q-30.51,0 -41.6102,-0.0062 T-61.3912,-0.2398 -77.0292,-1.0134 -90.1626,-2.3154 -101.5988,-3.9576 -111.8338,-5.8825 -121.92,-8.0306 -134.0358,-10.5809 -145.9086,-13.1763 -154.1459,-15.3681 -159.8718,-17.4606 -164.0366,-19.715 -166.9539,-22.1723 -168.5344,-24.6725 -169.2062,-27.1518 -169.4917,-29.5479 -169.613,-31.7499 -169.4907,-33.6962 -168.6531,-35.375 -166.83,-36.8741 -164.3517,-38.3444 -161.6018,-39.792 -158.7158,-41.1847 -155.5076,-42.6302 -151.7314,-44.0406 -147.5191,-45.3019 -143.2814,-46.5432 -139.2207,-47.7822 -135.0821,-48.979 -130.4795,-50.2258 -125.1928,-51.6177 -119.4973,-53.1042 -113.8852,-54.5278 -108.3295,-55.7535 -102.5196,-56.7013 -96.4696,-57.4691 -90.1368,-58.2388 -83.3986,-59.0835 -76.3214,-59.9189 -69.1069,-60.676 -61.9177,-61.3978 -54.2106,-62.117 -44.8582,-62.9341 -32.8804,-63.9804 -18.2642,-65.2396 -2.3528,-66.5192 13.0452,-67.626 27.495,-68.5521 41.8546,-69.3931 56.913,-70.1383 73.5338,-70.7849 92.3205,-71.3113 112.2154,-71.6195 131.3923,-71.7505 149.534,-71.8062 167.4374,-71.8299 186.7344,-71.8399 208.3133,-71.8442 231.2583,-71.846 255.1594,-71.7891 279.4876,-71.5504 304.1157,-71.1747 330.2756,-70.8026 358.4494,-70.2857 388.821,-69.4907 420.829,-68.5445 453.6158,-67.466 487.5263,-66.3189 521.5945,-65.322 555.0553,-64.5952 588.8073,-64.1069 622.4187,-63.6334 655.0805,-63.0362 687.8323,-62.2875 721.8461,-61.2785 757.4393,-59.9361 793.7314,-58.3057 829.2638,-56.5054 864.7722,-54.5484 900.2149,-52.4732 933.1404,-50.3953 963.0353,-48.3656 990.7176,-46.2554 1015.8532,-43.8347 1037.8624,-41.1294 1056.9297,-38.2866 1073.4673,-35.3339 1087.2403,-32.4397 1098.1278,-29.8177 1106.7321,-27.4537 1113.7264,-25.3891 1119.3342,-23.6022 1123.6991,-21.9272 1127.0561,-20.3658 1129.3032,-18.8649 1130.453,-17.3383 1130.9416,-15.9183 1131.1493,-14.6755 1131.2375,-13.4792 1131.2055,-12.3047 1130.6287,-11.1911 1128.8191,-10.095 1125.693,-9.0621 1121.6666,-8.1179 1117.1116,-7.2093 1112.172,-6.3097 1106.7074,-5.4015 1100.7971,-4.533 1094.6975,-3.7474 1088.5313,-3.032 1082.0726,-2.398 1074.9472,-1.8316 1067.5385,-1.2548 1059.9885,-0.622 1051.5024,0.0677 1041.6659,0.8742 1030.2056,1.7449 1017.0469,2.5892 1002.4572,3.4904 986.0912,4.4302 967.6771,5.3616 947.0296,6.3885 922.7144,7.5157 893.6072,8.6319 860.9547,9.6982 826.1139,10.7514 789.2793,11.8692 750.1859,13.1361 708.1439,14.4355 663.0966,15.4702 615.5275,16.0977 566.1078,16.4014 516.6804,16.5305 469.3703,16.5854 424.6915,16.6087 382.7788,16.6186 345.9285,16.6228 313.4129,16.4184 280.9458,15.6387 248.673,14.2391 218.9511,12.4998 192.5384,10.777 168.4568,9.2756 145.6371,7.9529 124.1255,6.7969 103.5175,5.7653 83.3075,4.7392 63.6281,3.7855 45.2381,3.0111 28.8075,2.3314 14.2943,1.6569 1.2636,0.9578 -10.4836,0.1967 -24.077,-0.7124 -38.0522,-1.6017 L-43.9916,-1.9796 " stroke-linecap="round" fill="none" pointer-events="all" stroke="color(display-p3 0.1512 0.9414 0.9996)" stroke-width="49.28" opacity="0.82"/>
		</g>
	</g>
	<g transform="matrix(0.9986, -0.0523, 0.0523, 0.9986, 1758.4293, -90.634)" opacity="1">
		<g transform="scale(1)">
			<path d="M0,0 Q-30.1937,0 -42.3769,0 T-65.4942,0 -85.4905,0 -102.6006,0 -119.0016,-0.5733 -137.3933,-3.0185 -157.6977,-7.3112 -176.1922,-11.6918 -191.0692,-15.2143 -202.6167,-18.0175 -210.9253,-20.1958 -216.6816,-22.0081 -220.4554,-23.7092 -222.7774,-25.2301 -224.3347,-26.5649 -225.412,-27.9242 -226.1057,-29.4298 -226.566,-31.1394 -226.825,-33.2165 -226.9351,-35.5679 -226.9819,-37.9325 -227.0017,-40.2052 -227.0102,-42.2674 -226.9504,-44.0156 -226.3758,-45.3437 -224.7831,-46.2303 -222.205,-46.8228 -218.9019,-47.1691 -215.287,-47.3163 -211.5361,-47.3789 -207.305,-47.4055 -202.2078,-47.4168 -195.8484,-47.4216 -188.2377,-47.4236 -179.701,-47.3033 -169.468,-46.8533 -156.4579,-46.074 -140.5003,-44.9774 -121.5964,-43.5893 -101.3665,-42.2163 -82.1256,-40.9856 -63.6114,-39.8657 -45.4447,-38.8991 -28.5383,-38.054 -12.8787,-37.3313 2.0257,-36.6666 16.3979,-35.9231 30.5157,-35.0959 44.4867,-34.2508 58.0573,-33.407 70.9649,-32.5313 83.2667,-31.7306 95.1879,-31.086 106.5248,-30.416 117.036,-29.5255 127.1752,-28.3078 137.128,-26.8269 146.625,-25.2489 155.6853,-23.6267 164.1621,-21.8971 171.5144,-20.1041 177.5472,-18.3344 182.456,-16.5864 186.4821,-14.9452 189.8656,-13.3789 192.7435,-11.8296 195.2235,-10.394 197.3408,-9.0835 199.1173,-7.838 200.5905,-6.6261 201.7307,-5.4313 202.5427,-4.3296 203.0427,-3.3531 203.2552,-2.3795 202.8913,-1.49 201.0714,-0.7928 197.3018,-0.2365 192.1332,0.1123 186.4264,0.2605 180.6211,0.3235 174.5803,0.3502 167.2635,0.3616 157.8975,0.3665 146.9917,0.3685 134.9985,0.3694 122.5782,0.3698 110.5363,0.3699 99.3487,0.37 89.5347,0.37 81.1107,0.37 73.7775,0.37 67.464,0.37 62.0029,0.37 56.8478,0.37 51.7734,0.2666 46.8847,-0.061 37.9873,-1.1282 26.6865,-2.5941 L21.8836,-3.2172 " stroke-linecap="round" fill="none" pointer-events="all" stroke="color(display-p3 0.972 0.8705 0.05)" stroke-width="49.28" opacity="0.82"/>
		</g>
	</g>
	<g transform="matrix(1, 0, 0, 1, 1476.6832, -113.5509)" opacity="1">
		<g transform="scale(1)">
			<path d="M0,0 Q-13.8862,1.7595 -17.2683,2.1334 T-22.4155,2.6662 -25.1436,2.7546 -26.5848,2.3495 -27.2835,1.217 -27.5978,-0.8944 -27.7313,-3.6231 -27.7881,-6.3813 -27.8122,-8.9307 -27.7649,-11.19 -27.4516,-13.2399 -26.7204,-15.3071 -25.2884,-17.8186 -23.4867,-20.2344 -21.939,-21.8218 -20.6056,-22.8586 -19.3747,-23.5494 -18.1846,-23.9293 -17.0147,-24.0907 -15.8505,-24.1593 -14.6916,-24.1884 -13.5349,-24.1836 -12.4626,-23.9832 -11.5124,-23.3862 -10.6054,-22.3678 -9.7915,-21.0322 -9.0949,-19.5273 -8.4395,-17.9246 -7.8475,-16.2573 -7.3401,-14.6287 -6.8714,-13.1776 -6.4623,-11.799 -6.093,-10.3477 -5.6773,-8.8971 -5.2706,-7.4527 -4.9856,-6.051 -4.8386,-4.7653 -4.7762,-3.5576 -4.7496,-2.3831 -4.7383,-1.2284 -4.7335,-0.0937 -4.7315,1.0498 -4.7306,2.22 -4.7303,3.3901 -4.7301,4.5516 -4.73,5.7093 -4.73,6.8654 -4.73,8.0123 -4.73,9.0604 -4.73,9.9198 -4.7501,10.6875 -4.8737,11.4307 -5.2108,12.0513 -5.7365,12.5968 -6.3221,13.1736 -6.9103,13.7408 -7.5455,14.2291 -12.5937,12.8496 -20.7806,10.0709 L-24.26,8.89 " stroke-linecap="round" fill="none" pointer-events="all" stroke="color(display-p3 0.1512 0.9414 0.9996)" stroke-width="49.28" opacity="0.82"/>
		</g>
	</g>
	<g transform="matrix(1, 0, 0, 1, 2533.1157, -119.2848)" opacity="1">
		<g transform="scale(1)">
			<path d="M0,0 Q22.6566,0 30.6224,0 T44.7673,0 56.0744,0 66.0061,0.138 75.2339,0.6049 83.5306,1.3553 90.8291,2.3614 97.3849,3.5853 103.5264,4.8703 109.4854,6.1552 115.3214,7.2217 121.0707,7.9711 126.7909,8.5426 132.4517,8.8976 137.9178,9.0485 142.9844,9.219 147.5015,9.5042 155.7599,10.1515 166.4432,10.9996 L170.9836,11.36 " stroke-linecap="round" fill="none" pointer-events="all" stroke="color(display-p3 0.1512 0.9414 0.9996)" stroke-width="49.28" opacity="0.82"/>
		</g>
	</g>
	<g transform="matrix(1, 0, 0, 1, 2402.075, -24.6742)" opacity="1">
		<g transform="scale(1)">
			<path d="M0,0 Q31.8017,0 43.7771,0 T65.8661,0 85.2529,0 103.4036,0 120.7881,0 137.2976,0 152.6122,0 166.3952,0.0604 178.3483,0.3333 188.6058,0.9035 197.7356,1.6921 206.2366,2.493 214.2696,3.0605 221.8299,3.342 228.9958,3.4616 235.5471,3.5124 241.2185,3.534 246.0943,3.5432 250.3602,3.5471 254.2481,3.5488 258.0594,3.5495 261.9166,3.5498 265.7824,3.5499 269.6372,3.55 273.407,3.55 277.0988,3.55 280.7537,3.55 288.9024,3.55 299.9222,3.55 L304.6056,3.55 " stroke-linecap="round" fill="none" pointer-events="all" stroke="color(display-p3 0.1512 0.9414 0.9996)" stroke-width="49.28" opacity="0.82"/>
		</g>
	</g>
	<g transform="matrix(1, 0, 0, 1, 1433.6355, -31.1464)" opacity="1">
		<g transform="scale(1)">
			<path d="M0,0 Q38.5135,0.299 52.8214,0.4028 T78.5605,0.8813 99.1797,1.9846 116.1107,3.3878 130.6032,4.4298 143.1364,4.9532 153.6063,5.1756 162.0264,5.2701 172.39,5.4857 183.9198,5.8115 L188.82,5.95 " stroke-linecap="round" fill="none" pointer-events="all" stroke="color(display-p3 0.1512 0.9414 0.9996)" stroke-width="49.28" opacity="0.82"/>
		</g>
	</g>
	<g transform="matrix(1, 0, 0, 1, 2171.2287, 211.4143)" opacity="1">
		<g transform="scale(1)">
			<path d="M0,0 Q21.6217,0 28.9816,0 T45.6336,-0.7797 62.0252,-2.4117 75.2521,-4.0777 86.9626,-5.6696 97.5221,-7.1884 107.0591,-8.4868 115.9573,-9.5023 124.5225,-10.3714 132.975,-11.1454 141.241,-11.8946 149.1562,-12.6923 156.8144,-13.488 164.2614,-14.1613 171.4626,-14.6055 178.3784,-14.8273 185.0881,-14.9215 191.8219,-15.0449 198.641,-15.2623 205.5234,-15.5128 212.4077,-15.7703 219.0982,-15.9544 225.924,-16.0326 233.4197,-16.0659 241.383,-16.08 249.6644,-16.086 258.0849,-16.0886 266.1447,-16.0897 274.2823,-16.0901 282.944,-16.0903 291.711,-16.0904 300.3147,-16.0904 308.93,-16.0905 318.0238,-16.0158 327.5888,-15.8365 337.0824,-15.6057 345.9564,-15.3461 354.1127,-15.109 361.8985,-14.8867 369.2302,-14.6915 376.2264,-14.5825 383.3786,-14.5362 390.5219,-14.5165 397.2821,-14.5081 403.6561,-14.5046 409.4847,-14.5031 414.5364,-14.5024 418.9461,-14.5022 422.7402,-14.502 425.7546,-14.502 428.0255,-14.4533 429.6877,-14.3337 430.8968,-14.1839 431.8535,-14.0229 432.6414,-13.9059 433.2517,-13.8562 433.7382,-13.7986 434.1453,-13.7029 434.455,-13.5945 434.6733,-13.4304 434.7026,-13.2026 434.507,-12.9773 434.0465,-12.6593 433.4175,-12.255 432.79,-11.8035 432.1613,-11.2331 431.613,-10.5288 431.2028,-9.6477 430.9668,-8.6759 430.8665,-7.7107 430.8239,-6.6441 430.8058,-5.366 430.7981,-3.9667 430.7948,-2.5072 430.7934,-0.9753 430.7928,0.518 430.7926,1.948 430.7925,3.3545 430.7924,4.7719 430.7924,6.4422 430.7924,8.5204 430.7924,11.0152 430.7924,14.0637 430.7924,17.7887 430.7924,22.1293 430.7924,26.94 430.7924,32.046 430.7924,37.1976 430.7924,42.379 430.6961,47.9985 430.3663,54.3113 429.8468,60.7884 429.2544,67.0368 428.6444,73.2643 428.0501,79.2589 427.5048,84.8646 427.092,90.6088 426.8666,96.6134 426.7245,102.5376 426.5351,108.4972 426.3314,114.5203 426.2043,120.369 426.1504,126.3555 426.0619,132.9614 425.7914,140.2369 425.2123,148.3145 424.2787,157.2382 423.0962,166.7681 421.783,176.9499 420.2832,188.013 418.6001,199.7806 417.0433,211.9952 415.75,224.6828 414.5726,237.5368 413.5445,250.2634 412.7051,262.7589 412.0538,274.7341 411.6402,285.9377 411.3412,295.9053 411.0678,304.6459 410.8938,312.8704 410.8199,320.681 410.7884,327.8884 410.7751,334.5583 410.7694,340.6541 410.767,346.0476 410.766,350.842 410.7655,355.2639 410.7653,359.3937 410.7653,363.3021 410.7652,366.9966 410.7652,370.3484 410.7652,373.3097 410.7691,376.1155 410.9209,379.0566 411.4033,382.1264 412.0955,385.2092 412.8307,388.2993 413.6496,391.3994 414.5638,394.5334 415.5281,397.7963 416.5272,401.3415 417.4775,405.149 418.2935,408.9812 419.0004,412.6538 419.5801,416.0414 419.9959,419.0249 420.2651,421.5831 420.4064,423.806 420.4665,425.7596 420.492,427.4408 420.5029,428.9228 420.5075,430.3775 420.5094,431.8796 420.5103,433.4766 420.5106,435.2631 420.5108,437.2102 420.5108,439.2914 420.5109,441.5721 420.5109,444.0139 420.5109,446.5937 420.5109,449.4405 420.5109,452.6873 420.5109,456.2881 420.5109,460.0047 420.5109,463.5865 420.5109,466.7914 420.5109,469.4819 420.5109,471.6325 420.5109,473.2845 420.5109,474.61 420.5109,475.7829 420.5109,476.863 420.5109,477.8726 420.5109,478.8365 420.5109,479.6646 420.5109,480.2858 420.5109,480.8172 420.5109,481.4806 420.5109,483.0736 420.5109,485.5166 420.5109,488.0466 420.5109,490.5666 420.5109,492.9851 420.5109,495.258 420.5109,497.285 420.5109,499.0651 420.5109,500.7107 420.5109,502.2957 420.5109,503.8532 420.5109,505.4042 420.5109,507.0028 420.5109,508.7623 420.5109,510.6319 420.5109,512.3416 420.5109,513.768 420.5109,514.9542 420.5109,515.9151 420.5109,516.7159 420.5109,517.4035 420.5109,517.9962 420.5109,518.5971 420.5109,519.2536 420.5109,519.9633 420.5109,520.7563 420.5109,521.623 420.5109,522.5591 420.5109,523.7627 420.3896,525.6253 419.8643,528.3843 418.8111,532.0244 417.4796,536.1883 416.2146,540.1425 415.1918,543.2748 414.4528,545.4707 413.9076,547.0552 413.4314,548.4423 413.0326,549.8705 412.7321,551.3006 412.4388,552.5318 412.1524,553.5083 412.0211,554.2567 411.7919,554.738 410.5199,555.0086 407.291,555.3389 401.8382,555.9828 391.323,557.0779 377.632,558.3177 364.5053,559.3361 350.9829,560.1857 336.9921,560.868 322.5479,561.3004 307.911,561.505 293.1056,561.5919 278.2709,561.6289 263.6722,561.6446 249.2605,561.6513 235.1901,561.6541 222.2469,561.6553 211.0094,561.6558 201.1997,561.6352 192.4609,561.5292 184.5912,561.3522 177.3394,561.2214 170.5447,561.1658 164.1367,561.1421 158.1108,561.1321 152.459,561.1278 147.0645,561.126 141.6753,561.1252 136.1305,561.1249 130.4078,561.1248 124.5229,561.1247 118.6635,561.1247 113.0497,561.1247 107.7715,561.1247 102.7591,561.1247 97.4726,561.1247 91.696,561.0622 85.7979,560.9123 79.7729,560.7774 73.7653,560.6263 68.131,560.3329 62.8729,559.9199 57.9596,559.4596 53.2082,559.0053 48.4254,558.6489 43.6602,558.4506 39.0084,558.3663 34.6165,558.3305 30.6606,558.3153 27.2154,558.2723 24.176,558.0631 21.4419,557.6216 18.9685,557.1006 16.7137,556.6343 14.6675,556.2156 12.7849,555.8241 11.0547,555.4997 9.5876,555.2993 8.446,555.2072 7.6797,555.168 7.5351,555.2104 7.9126,555.2597 8.2695,554.9212 8.4212,553.593 8.4857,550.9448 8.5131,547.3934 8.6017,543.3592 9.169,536.6297 10.0899,527.6433 10.797,518.4809 11.2651,508.8964 11.62,499.3982 11.9365,490.0582 12.3175,480.848 12.7316,471.7468 13.029,462.671 13.1823,453.5922 13.2475,444.4704 13.2752,435.8166 13.2869,427.8964 13.292,419.8922 13.2941,411.9113 13.1814,404.4335 12.8176,396.9541 12.2972,389.5817 11.8353,382.3868 11.5619,374.7864 11.4458,366.6002 11.3964,358.1773 11.3754,349.8431 11.3665,341.6212 11.3627,333.4696 11.3611,325.3618 11.3604,317.5262 11.3601,310.0215 11.36,302.4352 11.2059,294.6302 10.8073,286.7895 10.4299,278.8329 10.2406,270.5857 10.1601,262.1491 10.1259,253.5624 10.1114,245.1186 10.0147,237.0464 9.7021,228.658 9.2092,219.7914 8.73,211.0151 8.4359,202.2858 8.3109,193.6547 8.2578,185.3291 8.2352,176.8852 8.2256,168.4604 8.2215,160.3893 8.2198,152.1595 8.2191,143.3603 8.2188,133.6228 8.2186,123.4223 8.3553,114.1728 8.7176,106.5708 9.1316,100.7769 9.5675,96.7378 10.134,94.1772 10.7657,92.7226 11.2749,91.8039 11.5549,90.6981 11.6739,88.7017 11.7244,85.601 11.7459,80.6366 11.7319,74.9878 11.6297,70.1872 11.463,65.7297 11.3421,61.6143 11.2907,57.6878 11.2689,53.8275 11.2596,50.091 11.1825,46.4122 10.9379,42.8465 10.5566,39.5547 10.1211,36.5651 9.6915,33.94 8.7194,27.278 7.3855,17.7952 L6.8186,13.7651 " stroke-linecap="round" fill="none" pointer-events="all" stroke="color(display-p3 0.563 0.9495 0.3857)" stroke-width="49.28" opacity="0.82"/>
		</g>
	</g>
	<g transform="matrix(1, 0, 0, 1, 2242.3162, 148.2464)" opacity="1">
		<g transform="scale(1)">
			<path d="M0,0 Q33.1725,-0.299 45.9374,-0.3625 T70.8031,-0.4531 94.8947,-0.4916 117.446,-0.5079 137.0577,-0.5149 155.0898,-0.7737 172.3611,-1.4443 187.7777,-2.083 201.4048,-2.4033 213.9065,-2.5394 225.3587,-2.5972 235.4564,-2.7311 244.0149,-3.018 251.1897,-3.3613 257.1537,-3.694 262.1866,-3.9217 266.6312,-4.1105 270.8085,-4.3747 279.1564,-4.579 290.0841,-4.685 L294.7283,-4.73 " stroke-linecap="round" fill="none" pointer-events="all" stroke="color(display-p3 0.563 0.9495 0.3857)" stroke-width="49.28" opacity="0.82"/>
		</g>
	</g>
	<g transform="matrix(1, 0, 0, 1, 2489.5099, -111.9555)" opacity="1">
		<g transform="scale(1)">
			<path d="M 0 0 m -0.1, 0 a 0.1,0.1 0 1,0 0.2,0 a 0.1,0.1 0 1,0 -0.2,0" stroke-linecap="round" fill="none" pointer-events="all" stroke="color(display-p3 0.563 0.9495 0.3857)" stroke-width="56.64279950857163" opacity="0.82"/>
		</g>
	</g>
	<g transform="matrix(1, 0, 0, 1, 2431.2094, -116.0298)" opacity="1">
		<g transform="scale(1)">
			<path d="M 0 0 m -0.1, 0 a 0.1,0.1 0 1,0 0.2,0 a 0.1,0.1 0 1,0 -0.2,0" stroke-linecap="round" fill="none" pointer-events="all" stroke="color(display-p3 0.1512 0.9414 0.9996)" stroke-width="51.638939137806496" opacity="0.82"/>
		</g>
	</g>
	<g transform="matrix(1, 0, 0, 1, 2058.7129, 117.6979)" opacity="1">
		<g transform="scale(1)">
			<path d="M0,0 Q25.0873,0 34.0149,0 T50.8653,0 71.3581,-1.2479 93.974,-3.8599 112.9323,-6.5264 130.0804,-9.0743 145.7029,-11.5052 159.8807,-13.5833 173.1398,-15.2085 185.9164,-16.5996 198.5311,-17.8384 210.87,-19.0375 222.6862,-20.3142 234.1194,-21.5877 245.2374,-22.6654 255.9885,-23.3763 266.3135,-23.7312 276.3309,-23.8821 286.3842,-24.0796 296.5651,-24.4276 306.8403,-24.8284 317.1182,-25.2405 327.107,-25.5352 337.2977,-25.6604 348.4885,-25.7136 360.3775,-25.7363 372.7414,-25.7459 385.313,-25.75 397.346,-25.7517 409.4952,-25.7524 422.4268,-25.7528 435.5157,-25.7529 448.3608,-25.7529 461.2231,-25.753 474.7999,-25.6335 489.0801,-25.3464 503.2538,-24.9771 516.5025,-24.5617 528.6796,-24.1822 540.3034,-23.8264 551.2495,-23.514 561.6946,-23.3395 572.3726,-23.2654 583.0374,-23.2338 593.1301,-23.2205 602.6463,-23.2148 611.3482,-23.2123 618.8904,-23.2113 625.4739,-23.2109 631.1383,-23.2107 635.6386,-23.2106 639.029,-23.1328 641.5107,-22.9413 643.3158,-22.7014 644.7442,-22.4439 645.9205,-22.2566 646.8316,-22.177 647.5581,-22.0848 648.1658,-21.9317 648.6282,-21.7582 648.9541,-21.4955 648.9977,-21.1309 648.7058,-20.7703 648.0182,-20.2613 647.0791,-19.6142 646.1424,-18.8917 645.2038,-17.9788 644.3851,-16.8515 643.7727,-15.4413 643.4204,-13.886 643.2707,-12.3411 643.207,-10.634 643.18,-8.5883 643.1685,-6.3487 643.1636,-4.0128 643.1615,-1.5609 643.1607,0.8291 643.1603,3.1177 643.1601,5.3689 643.1601,7.6374 643.16,10.3108 643.16,13.6371 643.16,17.6299 643.16,22.5091 643.16,28.471 643.16,35.4183 643.16,43.1179 643.16,51.29 643.16,59.5352 643.16,67.8281 643.0163,76.8222 642.5239,86.9259 641.7483,97.2926 640.8638,107.2932 639.9531,117.2604 639.0658,126.8549 638.2517,135.8268 637.6355,145.0206 637.2988,154.631 637.0868,164.1128 636.804,173.651 636.4998,183.2912 636.3102,192.6521 636.2296,202.2336 636.0976,212.8064 635.6936,224.4509 634.829,237.3791 633.4352,251.6617 631.6698,266.9145 629.7092,283.2105 627.47,300.9172 624.9573,319.7513 622.633,339.301 620.7021,359.6077 618.9443,380.1806 617.4094,400.5497 616.1563,420.5489 615.1838,439.7153 614.5664,457.6469 614.12,473.6001 613.7117,487.5896 613.452,500.7529 613.3416,513.2538 613.2947,524.7895 613.2747,535.4647 613.2663,545.2212 613.2627,553.8534 613.2611,561.527 613.2605,568.6043 613.2602,575.214 613.2601,581.4695 613.26,587.3826 613.26,592.7472 613.26,597.4868 613.2658,601.9775 613.4924,606.6847 614.2127,611.598 615.2461,616.5321 616.3437,621.4778 617.5663,626.4397 618.9312,631.4556 620.3709,636.6779 621.8625,642.352 623.2813,648.446 624.4996,654.5796 625.5549,660.4575 626.4203,665.8794 627.0411,670.6545 627.443,674.7489 627.654,678.3067 627.7437,681.4335 627.7818,684.1243 627.798,686.4963 627.8049,688.8245 627.8078,691.2287 627.8091,693.7846 627.8096,696.6441 627.8098,699.7603 627.8099,703.0914 627.81,706.7416 627.81,710.6498 627.81,714.7788 627.81,719.3351 627.81,724.5316 627.81,730.2948 627.81,736.2433 627.81,741.9759 627.81,747.1054 627.81,751.4115 627.81,754.8536 627.81,757.4977 627.81,759.6192 627.81,761.4964 627.81,763.2252 627.81,764.841 627.81,766.3837 627.81,767.7092 627.81,768.7033 627.81,769.5538 627.81,770.6157 627.81,773.1653 627.81,777.0754 627.81,781.1246 627.81,785.1579 627.81,789.0287 627.81,792.6666 627.81,795.9108 627.81,798.7598 627.81,801.3936 627.81,803.9305 627.81,806.4232 627.81,808.9057 627.81,811.4643 627.81,814.2804 627.81,817.2727 627.81,820.0091 627.81,822.2921 627.81,824.1906 627.81,825.7285 627.81,827.0102 627.81,828.1107 627.81,829.0593 627.81,830.0211 627.81,831.0718 627.81,832.2077 627.81,833.4769 627.81,834.864 627.81,836.3624 627.81,838.2888 627.6289,841.2698 626.8446,845.6856 625.2722,851.5117 623.2843,858.1761 621.3958,864.5048 619.8687,869.518 618.7655,873.0327 617.9516,875.5686 617.2405,877.7887 616.6451,880.0746 616.1965,882.3635 615.7587,884.3341 615.3311,885.8969 615.1349,887.0948 614.7929,887.8651 612.8937,888.2981 608.0731,888.8268 599.9322,889.8574 584.2334,891.6101 563.7931,893.5945 544.1953,895.2244 524.0069,896.5841 503.1189,897.6762 481.5542,898.3682 459.7018,898.6957 437.5978,898.8348 415.45,898.894 393.6546,898.9191 372.1383,898.9298 351.1317,898.9344 331.8078,898.9363 315.0306,898.9371 300.385,898.9041 287.3382,898.7344 275.5891,898.4511 264.7624,898.2417 254.618,898.1528 245.0512,898.115 236.0546,898.0989 227.6167,898.0921 219.5629,898.0892 211.517,898.0879 203.2387,898.0874 194.695,898.0872 185.909,898.0871 177.1609,898.087 168.7798,898.087 160.8995,898.087 153.4162,898.087 145.5236,898.087 136.8994,897.987 128.0936,897.7471 119.0985,897.5312 110.1294,897.2894 101.7175,896.8197 93.8673,896.1588 86.5319,895.4221 79.4382,894.6949 72.2977,894.1245 65.1834,893.8071 58.2383,893.6722 51.6814,893.6149 45.7754,893.5905 40.6318,893.5218 36.094,893.1869 32.0121,892.4803 28.3194,891.6464 24.9531,890.9001 21.8981,890.23 19.0874,889.6034 16.5043,889.0841 14.3139,888.7634 12.6097,888.6159 11.4656,888.5533 11.2496,888.6212 11.8133,888.7 12.3462,888.1582 12.5726,886.0325 12.6689,881.794 12.7098,876.1099 12.8422,869.6531 13.689,858.8825 15.0638,844.4997 16.1196,829.8351 16.8185,814.495 17.3483,799.2931 17.8208,784.3443 18.3896,769.6032 19.008,755.0366 19.4519,740.5107 19.6808,725.98 19.7781,711.3804 19.8194,697.5298 19.837,684.8536 19.8445,672.0427 19.8477,659.2692 19.6794,647.3008 19.1364,635.33 18.3593,623.5304 17.6697,612.0149 17.2616,599.8502 17.0882,586.7482 17.0145,573.2672 16.9832,559.9282 16.9698,546.7689 16.9642,533.7222 16.9618,520.7456 16.9608,508.2046 16.9603,496.1932 16.9601,484.0513 16.7301,471.5593 16.1349,459.0101 15.5715,446.2756 15.2889,433.0758 15.1688,419.5728 15.1177,405.8297 15.096,392.3153 14.9517,379.3957 14.485,365.97 13.749,351.7789 13.0337,337.7323 12.5946,323.761 12.4079,309.9467 12.3286,296.6216 12.2949,283.107 12.2806,269.623 12.2745,256.7051 12.2719,243.5331 12.2708,229.4499 12.2703,213.8649 12.2701,197.5388 12.4742,182.7349 13.0152,170.5679 13.6332,161.2947 14.284,154.83 15.1298,150.7318 16.0729,148.4036 16.8331,146.9333 17.2511,145.1634 17.4287,141.9682 17.5042,137.0055 17.5363,129.0599 17.5154,120.0188 17.3628,112.3354 17.1139,105.2013 16.9334,98.6145 16.8567,92.33 16.8241,86.1516 16.8102,80.1712 16.6951,74.2833 16.3299,68.5764 15.7607,63.3078 15.1106,58.5228 14.4691,54.3214 13.9406,50.5069 13.5148,46.7902 13.052,43.215 12.0417,35.8869 10.7353,26.1636 L10.18,22.0312 " stroke-linecap="round" fill="none" pointer-events="all" stroke="color(display-p3 0.1512 0.9414 0.9996)" stroke-width="49.28" opacity="0.82"/>
		</g>
	</g>
	<g transform="matrix(1, 0, 0, 1, 2216.0228, -33.667)" opacity="1">
		<g transform="scale(1)">
			<path d="M0,0 Q37.4095,0 50.5513,0 T73.7805,0.0949 91.3292,0.4658 104.2384,1.141 113.7355,1.9828 121.0434,2.8696 127.0588,3.6461 136.2336,4.9737 147.396,6.7044 L152.14,7.44 " stroke-linecap="round" fill="none" pointer-events="all" stroke="color(display-p3 0.563 0.9495 0.3857)" stroke-width="49.28" opacity="0.82"/>
		</g>
	</g>
	<g transform="matrix(1, 0, 0, 1, 2119.3462, -32.931)" opacity="1">
		<g transform="scale(1)">
			<path d="M0,0 Q15.0075,0 18.8003,0 T24.7456,0 28.3074,0 30.8504,0 32.9259,0 39.5005,0 49.2966,0 L53.46,0 " stroke-linecap="round" fill="none" pointer-events="all" stroke="color(display-p3 0.1512 0.9414 0.9996)" stroke-width="49.28" opacity="0.82"/>
		</g>
	</g>
	<g transform="matrix(1, 0, 0, 1, 1437.9915, 38.2539)" opacity="1">
		<g transform="scale(1)">
			<path d="M0,0 Q44.0105,0 62.1861,0 T95.9955,0 126.2316,0 155.8345,0 186.9193,0 220.8677,0.2703 257.5023,1.3712 293.2918,3.153 323.8348,4.6607 348.1229,5.4538 367.7604,5.7909 383.817,5.9341 396.9316,5.995 407.8557,6.0209 417.176,5.9571 425.1823,5.6483 431.9142,5.0513 437.3887,4.3749 441.7537,3.8833 445.3166,3.6342 448.2942,3.5283 450.8994,3.4833 453.6022,3.4641 456.729,3.456 460.1709,3.4526 463.905,3.4511 467.9156,3.4505 476.4109,3.7204 487.6243,4.1903 L492.39,4.39 " stroke-linecap="round" fill="none" pointer-events="all" stroke="color(display-p3 0.1512 0.9414 0.9996)" stroke-width="49.28" opacity="0.82"/>
		</g>
	</g>
	<g transform="matrix(1, 0, 0, 1, 1425.3462, 117.6979)" opacity="1">
		<g transform="scale(1)">
			<path d="M0,0 Q23.4498,0 31.7948,0 T47.5454,0 66.7006,-1.2479 87.8403,-3.8599 105.5613,-6.5264 121.5901,-9.0743 136.193,-11.5052 149.4454,-13.5833 161.8391,-15.2085 173.7818,-16.5996 185.5731,-17.8384 197.1066,-19.0375 208.1516,-20.3142 218.8386,-21.5877 229.2309,-22.6654 239.2803,-23.3763 248.9314,-23.7312 258.2949,-23.8821 267.6921,-24.0796 277.2084,-24.4276 286.813,-24.8284 296.4201,-25.2405 305.7569,-25.5352 315.2825,-25.6604 325.7429,-25.7136 336.8559,-25.7363 348.4128,-25.7459 360.1638,-25.75 371.4115,-25.7517 382.7677,-25.7524 394.8553,-25.7528 407.0898,-25.7529 419.0965,-25.7529 431.1193,-25.753 443.81,-25.6335 457.1581,-25.3464 470.4067,-24.9771 482.7907,-24.5617 494.1729,-24.1822 505.0381,-23.8264 515.2697,-23.514 525.0331,-23.3395 535.0142,-23.2654 544.9828,-23.2338 554.4168,-23.2205 563.3119,-23.2148 571.4458,-23.2123 578.4957,-23.2113 584.6496,-23.2109 589.9442,-23.2107 594.1509,-23.2106 597.32,-23.1328 599.6397,-22.9413 601.3269,-22.7014 602.6621,-22.4439 603.7617,-22.2566 604.6133,-22.177 605.2923,-22.0848 605.8604,-21.9317 606.2926,-21.7582 606.5972,-21.4955 606.638,-21.1309 606.3651,-20.7703 605.7224,-20.2613 604.8446,-19.6142 603.969,-18.8917 603.0917,-17.9788 602.3264,-16.8515 601.754,-15.4413 601.4247,-13.886 601.2847,-12.3411 601.2253,-10.634 601.2,-8.5883 601.1892,-6.3487 601.1847,-4.0128 601.1827,-1.5609 601.1819,0.8291 601.1816,3.1177 601.1814,5.3689 601.1813,7.6374 601.1813,10.3108 601.1813,13.6371 601.1813,17.6299 601.1813,22.5091 601.1813,28.471 601.1813,35.4183 601.1813,43.1179 601.1813,51.29 601.1813,59.5352 601.1813,67.8281 601.0469,76.8222 600.5867,86.9259 599.8617,97.2926 599.0349,107.2932 598.1837,117.2604 597.3543,126.8549 596.5934,135.8268 596.0174,145.0206 595.7027,154.631 595.5044,164.1128 595.2401,173.651 594.9558,183.2912 594.7786,192.6521 594.7032,202.2336 594.5798,212.8064 594.2022,224.4509 593.3941,237.3791 592.0912,251.6617 590.4411,266.9145 588.6084,283.2105 586.5154,300.9172 584.1666,319.7513 581.994,339.301 580.1892,359.6077 578.5461,380.1806 577.1115,400.5497 575.9401,420.5489 575.0311,439.7153 574.4539,457.6469 574.0367,473.6001 573.6551,487.5896 573.4123,500.7529 573.3091,513.2538 573.2653,524.7895 573.2466,535.4647 573.2387,545.2212 573.2353,553.8534 573.2339,561.527 573.2333,568.6043 573.233,575.214 573.2329,581.4695 573.2329,587.3826 573.2329,592.7472 573.2329,597.4868 573.2382,601.9775 573.4501,606.6847 574.1233,611.598 575.0894,616.5321 576.1153,621.4778 577.2581,626.4397 578.5339,631.4556 579.8796,636.6779 581.2739,642.352 582.6001,648.446 583.7388,654.5796 584.7253,660.4575 585.5342,665.8794 586.1145,670.6545 586.4901,674.7489 586.6874,678.3067 586.7712,681.4335 586.8068,684.1243 586.822,686.4963 586.8284,688.8245 586.8312,691.2287 586.8323,693.7846 586.8328,696.6441 586.833,699.7603 586.8331,703.0914 586.8332,706.7416 586.8332,710.6498 586.8332,714.7788 586.8332,719.3351 586.8332,724.5316 586.8332,730.2948 586.8332,736.2433 586.8332,741.9759 586.8332,747.1054 586.8332,751.4115 586.8332,754.8536 586.8332,757.4977 586.8332,759.6192 586.8332,761.4964 586.8332,763.2252 586.8332,764.841 586.8332,766.3837 586.8332,767.7092 586.8332,768.7033 586.8332,769.5538 586.8332,770.6157 586.8332,773.1653 586.8332,777.0754 586.8332,781.1246 586.8332,785.1579 586.8332,789.0287 586.8332,792.6666 586.8332,795.9108 586.8332,798.7598 586.8332,801.3936 586.8332,803.9305 586.8332,806.4232 586.8332,808.9057 586.8332,811.4643 586.8332,814.2804 586.8332,817.2727 586.8332,820.0091 586.8332,822.2921 586.8332,824.1906 586.8332,825.7285 586.8332,827.0102 586.8332,828.1107 586.8332,829.0593 586.8332,830.0211 586.8332,831.0718 586.8332,832.2077 586.8332,833.4769 586.8332,834.864 586.8332,836.3624 586.8332,838.2888 586.6639,841.2698 585.9308,845.6856 584.461,851.5117 582.6029,858.1761 580.8377,864.5048 579.4102,869.518 578.379,873.0327 577.6182,875.5686 576.9536,877.7887 576.397,880.0746 575.9777,882.3635 575.5684,884.3341 575.1687,885.8969 574.9854,887.0948 574.6657,887.8651 572.8905,888.2981 568.3845,888.8268 560.7749,889.8574 546.1008,891.6101 526.9946,893.5945 508.676,895.2244 489.8052,896.5841 470.2806,897.6762 450.1234,898.3682 429.6973,898.6957 409.036,898.8348 388.3338,898.894 367.961,898.9191 347.8491,898.9298 328.2135,898.9344 310.1509,898.9363 294.4687,898.9371 280.779,898.9041 268.5838,898.7344 257.6016,898.4511 247.4815,898.2417 237.9992,898.1528 229.0568,898.115 220.6475,898.0989 212.7603,898.0921 205.2321,898.0892 197.7114,898.0879 189.9734,898.0874 181.9873,898.0872 173.7748,898.0871 165.5977,898.087 157.7636,898.087 150.3977,898.087 143.4028,898.087 136.0254,898.087 127.9641,897.987 119.733,897.7471 111.325,897.5312 102.9413,897.2894 95.0784,896.8197 87.7406,896.1588 80.884,895.4221 74.2533,894.6949 67.5789,894.1245 60.9289,893.8071 54.4371,893.6722 48.3082,893.6149 42.7876,893.5905 37.9798,893.5218 33.7382,893.1869 29.9227,892.4803 26.471,891.6464 23.3244,890.9001 20.4688,890.23 17.8416,889.6034 15.4271,889.0841 13.3797,888.7634 11.7867,888.6159 10.7173,888.5533 10.5154,888.6212 11.0423,888.7 11.5403,888.1582 11.752,886.0325 11.842,881.794 11.8802,876.1099 12.004,869.6531 12.7956,858.8825 14.0806,844.4997 15.0675,829.8351 15.7207,814.495 16.216,799.2931 16.6576,784.3443 17.1893,769.6032 17.7673,755.0366 18.1823,740.5107 18.3962,725.98 18.4872,711.3804 18.5258,697.5298 18.5423,684.8536 18.5492,672.0427 18.5522,659.2692 18.3949,647.3008 17.8873,635.33 17.161,623.5304 16.5164,612.0149 16.135,599.8502 15.9729,586.7482 15.904,573.2672 15.8747,559.9282 15.8622,546.7689 15.8569,533.7222 15.8547,520.7456 15.8537,508.2046 15.8533,496.1932 15.8532,484.0513 15.6381,471.5593 15.0818,459.0101 14.5551,446.2756 14.291,433.0758 14.1787,419.5728 14.131,405.8297 14.1107,392.3153 13.9758,379.3957 13.5395,365.97 12.8516,351.7789 12.183,337.7323 11.7725,323.761 11.5981,309.9467 11.5239,296.6216 11.4924,283.107 11.479,269.623 11.4734,256.7051 11.4709,243.5331 11.4699,229.4499 11.4695,213.8649 11.4693,197.5388 11.66,182.7349 12.1657,170.5679 12.7434,161.2947 13.3517,154.83 14.1423,150.7318 15.0239,148.4036 15.7344,146.9333 16.1251,145.1634 16.2911,141.9682 16.3617,137.0055 16.3917,129.0599 16.3722,120.0188 16.2295,112.3354 15.9969,105.2013 15.8282,98.6145 15.7565,92.33 15.726,86.1516 15.713,80.1712 15.6054,74.2833 15.2641,68.5764 14.732,63.3078 14.1243,58.5228 13.5247,54.3214 13.0307,50.5069 12.6327,46.7902 12.2001,43.215 11.2558,35.8869 10.0346,26.1636 L9.5156,22.0312 " stroke-linecap="round" fill="none" pointer-events="all" stroke="color(display-p3 0.1512 0.9414 0.9996)" stroke-width="49.28" opacity="0.82"/>
		</g>
	</g>
	<g transform="matrix(1, 0, 0, 1, 1392.9014, -338)" opacity="1">
		<image href="./Tyler Wikipedia.webp" width="1352" height="1380"/>
	</g>
	<g transform="matrix(1, 0, 0, 1, 1588.4314, -236.9895)" opacity="1">
		<g transform="scale(1)">
			<path d="M0,0 Q-30.51,0 -41.6102,-0.0062 T-61.3912,-0.2398 -77.0292,-1.0134 -90.1626,-2.3154 -101.5988,-3.9576 -111.8338,-5.8825 -121.92,-8.0306 -134.0358,-10.5809 -145.9086,-13.1763 -154.1459,-15.3681 -159.8718,-17.4606 -164.0366,-19.715 -166.9539,-22.1723 -168.5344,-24.6725 -169.2062,-27.1518 -169.4917,-29.5479 -169.613,-31.7499 -169.4907,-33.6962 -168.6531,-35.375 -166.83,-36.8741 -164.3517,-38.3444 -161.6018,-39.792 -158.7158,-41.1847 -155.5076,-42.6302 -151.7314,-44.0406 -147.5191,-45.3019 -143.2814,-46.5432 -139.2207,-47.7822 -135.0821,-48.979 -130.4795,-50.2258 -125.1928,-51.6177 -119.4973,-53.1042 -113.8852,-54.5278 -108.3295,-55.7535 -102.5196,-56.7013 -96.4696,-57.4691 -90.1368,-58.2388 -83.3986,-59.0835 -76.3214,-59.9189 -69.1069,-60.676 -61.9177,-61.3978 -54.2106,-62.117 -44.8582,-62.9341 -32.8804,-63.9804 -18.2642,-65.2396 -2.3528,-66.5192 13.0452,-67.626 27.495,-68.5521 41.8546,-69.3931 56.913,-70.1383 73.5338,-70.7849 92.3205,-71.3113 112.2154,-71.6195 131.3923,-71.7505 149.534,-71.8062 167.4374,-71.8299 186.7344,-71.8399 208.3133,-71.8442 231.2583,-71.846 255.1594,-71.7891 279.4876,-71.5504 304.1157,-71.1747 330.2756,-70.8026 358.4494,-70.2857 388.821,-69.4907 420.829,-68.5445 453.6158,-67.466 487.5263,-66.3189 521.5945,-65.322 555.0553,-64.5952 588.8073,-64.1069 622.4187,-63.6334 655.0805,-63.0362 687.8323,-62.2875 721.8461,-61.2785 757.4393,-59.9361 793.7314,-58.3057 829.2638,-56.5054 864.7722,-54.5484 900.2149,-52.4732 933.1404,-50.3953 963.0353,-48.3656 990.7176,-46.2554 1015.8532,-43.8347 1037.8624,-41.1294 1056.9297,-38.2866 1073.4673,-35.3339 1087.2403,-32.4397 1098.1278,-29.8177 1106.7321,-27.4537 1113.7264,-25.3891 1119.3342,-23.6022 1123.6991,-21.9272 1127.0561,-20.3658 1129.3032,-18.8649 1130.453,-17.3383 1130.9416,-15.9183 1131.1493,-14.6755 1131.2375,-13.4792 1131.2055,-12.3047 1130.6287,-11.1911 1128.8191,-10.095 1125.693,-9.0621 1121.6666,-8.1179 1117.1116,-7.2093 1112.172,-6.3097 1106.7074,-5.4015 1100.7971,-4.533 1094.6975,-3.7474 1088.5313,-3.032 1082.0726,-2.398 1074.9472,-1.8316 1067.5385,-1.2548 1059.9885,-0.622 1051.5024,0.0677 1041.6659,0.8742 1030.2056,1.7449 1017.0469,2.5892 1002.4572,3.4904 986.0912,4.4302 967.6771,5.3616 947.0296,6.3885 922.7144,7.5157 893.6072,8.6319 860.9547,9.6982 826.1139,10.7514 789.2793,11.8692 750.1859,13.1361 708.1439,14.4355 663.0966,15.4702 615.5275,16.0977 566.1078,16.4014 516.6804,16.5305 469.3703,16.5854 424.6915,16.6087 382.7788,16.6186 345.9285,16.6228 313.4129,16.4184 280.9458,15.6387 248.673,14.2391 218.9511,12.4998 192.5384,10.777 168.4568,9.2756 145.6371,7.9529 124.1255,6.7969 103.5175,5.7653 83.3075,4.7392 63.6281,3.7855 45.2381,3.0111 28.8075,2.3314 14.2943,1.6569 1.2636,0.9578 -10.4836,0.1967 -24.077,-0.7124 -38.0522,-1.6017 L-43.9916,-1.9796 " stroke-linecap="round" fill="none" pointer-events="all" stroke="color(display-p3 0.1512 0.9414 0.9996)" stroke-width="49.28" opacity="0.35"/>
		</g>
	</g>
	<g transform="matrix(0.9986, -0.0523, 0.0523, 0.9986, 1758.4293, -90.634)" opacity="1">
		<g transform="scale(1)">
			<path d="M0,0 Q-30.1937,0 -42.3769,0 T-65.4942,0 -85.4905,0 -102.6006,0 -119.0016,-0.5733 -137.3933,-3.0185 -157.6977,-7.3112 -176.1922,-11.6918 -191.0692,-15.2143 -202.6167,-18.0175 -210.9253,-20.1958 -216.6816,-22.0081 -220.4554,-23.7092 -222.7774,-25.2301 -224.3347,-26.5649 -225.412,-27.9242 -226.1057,-29.4298 -226.566,-31.1394 -226.825,-33.2165 -226.9351,-35.5679 -226.9819,-37.9325 -227.0017,-40.2052 -227.0102,-42.2674 -226.9504,-44.0156 -226.3758,-45.3437 -224.7831,-46.2303 -222.205,-46.8228 -218.9019,-47.1691 -215.287,-47.3163 -211.5361,-47.3789 -207.305,-47.4055 -202.2078,-47.4168 -195.8484,-47.4216 -188.2377,-47.4236 -179.701,-47.3033 -169.468,-46.8533 -156.4579,-46.074 -140.5003,-44.9774 -121.5964,-43.5893 -101.3665,-42.2163 -82.1256,-40.9856 -63.6114,-39.8657 -45.4447,-38.8991 -28.5383,-38.054 -12.8787,-37.3313 2.0257,-36.6666 16.3979,-35.9231 30.5157,-35.0959 44.4867,-34.2508 58.0573,-33.407 70.9649,-32.5313 83.2667,-31.7306 95.1879,-31.086 106.5248,-30.416 117.036,-29.5255 127.1752,-28.3078 137.128,-26.8269 146.625,-25.2489 155.6853,-23.6267 164.1621,-21.8971 171.5144,-20.1041 177.5472,-18.3344 182.456,-16.5864 186.4821,-14.9452 189.8656,-13.3789 192.7435,-11.8296 195.2235,-10.394 197.3408,-9.0835 199.1173,-7.838 200.5905,-6.6261 201.7307,-5.4313 202.5427,-4.3296 203.0427,-3.3531 203.2552,-2.3795 202.8913,-1.49 201.0714,-0.7928 197.3018,-0.2365 192.1332,0.1123 186.4264,0.2605 180.6211,0.3235 174.5803,0.3502 167.2635,0.3616 157.8975,0.3665 146.9917,0.3685 134.9985,0.3694 122.5782,0.3698 110.5363,0.3699 99.3487,0.37 89.5347,0.37 81.1107,0.37 73.7775,0.37 67.464,0.37 62.0029,0.37 56.8478,0.37 51.7734,0.2666 46.8847,-0.061 37.9873,-1.1282 26.6865,-2.5941 L21.8836,-3.2172 " stroke-linecap="round" fill="none" pointer-events="all" stroke="color(display-p3 0.972 0.8705 0.05)" stroke-width="49.28" opacity="0.35"/>
		</g>
	</g>
	<g transform="matrix(1, 0, 0, 1, 1476.6832, -113.5509)" opacity="1">
		<g transform="scale(1)">
			<path d="M0,0 Q-13.8862,1.7595 -17.2683,2.1334 T-22.4155,2.6662 -25.1436,2.7546 -26.5848,2.3495 -27.2835,1.217 -27.5978,-0.8944 -27.7313,-3.6231 -27.7881,-6.3813 -27.8122,-8.9307 -27.7649,-11.19 -27.4516,-13.2399 -26.7204,-15.3071 -25.2884,-17.8186 -23.4867,-20.2344 -21.939,-21.8218 -20.6056,-22.8586 -19.3747,-23.5494 -18.1846,-23.9293 -17.0147,-24.0907 -15.8505,-24.1593 -14.6916,-24.1884 -13.5349,-24.1836 -12.4626,-23.9832 -11.5124,-23.3862 -10.6054,-22.3678 -9.7915,-21.0322 -9.0949,-19.5273 -8.4395,-17.9246 -7.8475,-16.2573 -7.3401,-14.6287 -6.8714,-13.1776 -6.4623,-11.799 -6.093,-10.3477 -5.6773,-8.8971 -5.2706,-7.4527 -4.9856,-6.051 -4.8386,-4.7653 -4.7762,-3.5576 -4.7496,-2.3831 -4.7383,-1.2284 -4.7335,-0.0937 -4.7315,1.0498 -4.7306,2.22 -4.7303,3.3901 -4.7301,4.5516 -4.73,5.7093 -4.73,6.8654 -4.73,8.0123 -4.73,9.0604 -4.73,9.9198 -4.7501,10.6875 -4.8737,11.4307 -5.2108,12.0513 -5.7365,12.5968 -6.3221,13.1736 -6.9103,13.7408 -7.5455,14.2291 -12.5937,12.8496 -20.7806,10.0709 L-24.26,8.89 " stroke-linecap="round" fill="none" pointer-events="all" stroke="color(display-p3 0.1512 0.9414 0.9996)" stroke-width="49.28" opacity="0.35"/>
		</g>
	</g>
	<g transform="matrix(1, 0, 0, 1, 2533.1157, -119.2848)" opacity="1">
		<g transform="scale(1)">
			<path d="M0,0 Q22.6566,0 30.6224,0 T44.7673,0 56.0744,0 66.0061,0.138 75.2339,0.6049 83.5306,1.3553 90.8291,2.3614 97.3849,3.5853 103.5264,4.8703 109.4854,6.1552 115.3214,7.2217 121.0707,7.9711 126.7909,8.5426 132.4517,8.8976 137.9178,9.0485 142.9844,9.219 147.5015,9.5042 155.7599,10.1515 166.4432,10.9996 L170.9836,11.36 " stroke-linecap="round" fill="none" pointer-events="all" stroke="color(display-p3 0.1512 0.9414 0.9996)" stroke-width="49.28" opacity="0.35"/>
		</g>
	</g>
	<g transform="matrix(1, 0, 0, 1, 2402.075, -24.6742)" opacity="1">
		<g transform="scale(1)">
			<path d="M0,0 Q31.8017,0 43.7771,0 T65.8661,0 85.2529,0 103.4036,0 120.7881,0 137.2976,0 152.6122,0 166.3952,0.0604 178.3483,0.3333 188.6058,0.9035 197.7356,1.6921 206.2366,2.493 214.2696,3.0605 221.8299,3.342 228.9958,3.4616 235.5471,3.5124 241.2185,3.534 246.0943,3.5432 250.3602,3.5471 254.2481,3.5488 258.0594,3.5495 261.9166,3.5498 265.7824,3.5499 269.6372,3.55 273.407,3.55 277.0988,3.55 280.7537,3.55 288.9024,3.55 299.9222,3.55 L304.6056,3.55 " stroke-linecap="round" fill="none" pointer-events="all" stroke="color(display-p3 0.1512 0.9414 0.9996)" stroke-width="49.28" opacity="0.35"/>
		</g>
	</g>
	<g transform="matrix(1, 0, 0, 1, 1433.6355, -31.1464)" opacity="1">
		<g transform="scale(1)">
			<path d="M0,0 Q38.5135,0.299 52.8214,0.4028 T78.5605,0.8813 99.1797,1.9846 116.1107,3.3878 130.6032,4.4298 143.1364,4.9532 153.6063,5.1756 162.0264,5.2701 172.39,5.4857 183.9198,5.8115 L188.82,5.95 " stroke-linecap="round" fill="none" pointer-events="all" stroke="color(display-p3 0.1512 0.9414 0.9996)" stroke-width="49.28" opacity="0.35"/>
		</g>
	</g>
	<g transform="matrix(1, 0, 0, 1, 2171.2287, 211.4143)" opacity="1">
		<g transform="scale(1)">
			<path d="M0,0 Q21.6217,0 28.9816,0 T45.6336,-0.7797 62.0252,-2.4117 75.2521,-4.0777 86.9626,-5.6696 97.5221,-7.1884 107.0591,-8.4868 115.9573,-9.5023 124.5225,-10.3714 132.975,-11.1454 141.241,-11.8946 149.1562,-12.6923 156.8144,-13.488 164.2614,-14.1613 171.4626,-14.6055 178.3784,-14.8273 185.0881,-14.9215 191.8219,-15.0449 198.641,-15.2623 205.5234,-15.5128 212.4077,-15.7703 219.0982,-15.9544 225.924,-16.0326 233.4197,-16.0659 241.383,-16.08 249.6644,-16.086 258.0849,-16.0886 266.1447,-16.0897 274.2823,-16.0901 282.944,-16.0903 291.711,-16.0904 300.3147,-16.0904 308.93,-16.0905 318.0238,-16.0158 327.5888,-15.8365 337.0824,-15.6057 345.9564,-15.3461 354.1127,-15.109 361.8985,-14.8867 369.2302,-14.6915 376.2264,-14.5825 383.3786,-14.5362 390.5219,-14.5165 397.2821,-14.5081 403.6561,-14.5046 409.4847,-14.5031 414.5364,-14.5024 418.9461,-14.5022 422.7402,-14.502 425.7546,-14.502 428.0255,-14.4533 429.6877,-14.3337 430.8968,-14.1839 431.8535,-14.0229 432.6414,-13.9059 433.2517,-13.8562 433.7382,-13.7986 434.1453,-13.7029 434.455,-13.5945 434.6733,-13.4304 434.7026,-13.2026 434.507,-12.9773 434.0465,-12.6593 433.4175,-12.255 432.79,-11.8035 432.1613,-11.2331 431.613,-10.5288 431.2028,-9.6477 430.9668,-8.6759 430.8665,-7.7107 430.8239,-6.6441 430.8058,-5.366 430.7981,-3.9667 430.7948,-2.5072 430.7934,-0.9753 430.7928,0.518 430.7926,1.948 430.7925,3.3545 430.7924,4.7719 430.7924,6.4422 430.7924,8.5204 430.7924,11.0152 430.7924,14.0637 430.7924,17.7887 430.7924,22.1293 430.7924,26.94 430.7924,32.046 430.7924,37.1976 430.7924,42.379 430.6961,47.9985 430.3663,54.3113 429.8468,60.7884 429.2544,67.0368 428.6444,73.2643 428.0501,79.2589 427.5048,84.8646 427.092,90.6088 426.8666,96.6134 426.7245,102.5376 426.5351,108.4972 426.3314,114.5203 426.2043,120.369 426.1504,126.3555 426.0619,132.9614 425.7914,140.2369 425.2123,148.3145 424.2787,157.2382 423.0962,166.7681 421.783,176.9499 420.2832,188.013 418.6001,199.7806 417.0433,211.9952 415.75,224.6828 414.5726,237.5368 413.5445,250.2634 412.7051,262.7589 412.0538,274.7341 411.6402,285.9377 411.3412,295.9053 411.0678,304.6459 410.8938,312.8704 410.8199,320.681 410.7884,327.8884 410.7751,334.5583 410.7694,340.6541 410.767,346.0476 410.766,350.842 410.7655,355.2639 410.7653,359.3937 410.7653,363.3021 410.7652,366.9966 410.7652,370.3484 410.7652,373.3097 410.7691,376.1155 410.9209,379.0566 411.4033,382.1264 412.0955,385.2092 412.8307,388.2993 413.6496,391.3994 414.5638,394.5334 415.5281,397.7963 416.5272,401.3415 417.4775,405.149 418.2935,408.9812 419.0004,412.6538 419.5801,416.0414 419.9959,419.0249 420.2651,421.5831 420.4064,423.806 420.4665,425.7596 420.492,427.4408 420.5029,428.9228 420.5075,430.3775 420.5094,431.8796 420.5103,433.4766 420.5106,435.2631 420.5108,437.2102 420.5108,439.2914 420.5109,441.5721 420.5109,444.0139 420.5109,446.5937 420.5109,449.4405 420.5109,452.6873 420.5109,456.2881 420.5109,460.0047 420.5109,463.5865 420.5109,466.7914 420.5109,469.4819 420.5109,471.6325 420.5109,473.2845 420.5109,474.61 420.5109,475.7829 420.5109,476.863 420.5109,477.8726 420.5109,478.8365 420.5109,479.6646 420.5109,480.2858 420.5109,480.8172 420.5109,481.4806 420.5109,483.0736 420.5109,485.5166 420.5109,488.0466 420.5109,490.5666 420.5109,492.9851 420.5109,495.258 420.5109,497.285 420.5109,499.0651 420.5109,500.7107 420.5109,502.2957 420.5109,503.8532 420.5109,505.4042 420.5109,507.0028 420.5109,508.7623 420.5109,510.6319 420.5109,512.3416 420.5109,513.768 420.5109,514.9542 420.5109,515.9151 420.5109,516.7159 420.5109,517.4035 420.5109,517.9962 420.5109,518.5971 420.5109,519.2536 420.5109,519.9633 420.5109,520.7563 420.5109,521.623 420.5109,522.5591 420.5109,523.7627 420.3896,525.6253 419.8643,528.3843 418.8111,532.0244 417.4796,536.1883 416.2146,540.1425 415.1918,543.2748 414.4528,545.4707 413.9076,547.0552 413.4314,548.4423 413.0326,549.8705 412.7321,551.3006 412.4388,552.5318 412.1524,553.5083 412.0211,554.2567 411.7919,554.738 410.5199,555.0086 407.291,555.3389 401.8382,555.9828 391.323,557.0779 377.632,558.3177 364.5053,559.3361 350.9829,560.1857 336.9921,560.868 322.5479,561.3004 307.911,561.505 293.1056,561.5919 278.2709,561.6289 263.6722,561.6446 249.2605,561.6513 235.1901,561.6541 222.2469,561.6553 211.0094,561.6558 201.1997,561.6352 192.4609,561.5292 184.5912,561.3522 177.3394,561.2214 170.5447,561.1658 164.1367,561.1421 158.1108,561.1321 152.459,561.1278 147.0645,561.126 141.6753,561.1252 136.1305,561.1249 130.4078,561.1248 124.5229,561.1247 118.6635,561.1247 113.0497,561.1247 107.7715,561.1247 102.7591,561.1247 97.4726,561.1247 91.696,561.0622 85.7979,560.9123 79.7729,560.7774 73.7653,560.6263 68.131,560.3329 62.8729,559.9199 57.9596,559.4596 53.2082,559.0053 48.4254,558.6489 43.6602,558.4506 39.0084,558.3663 34.6165,558.3305 30.6606,558.3153 27.2154,558.2723 24.176,558.0631 21.4419,557.6216 18.9685,557.1006 16.7137,556.6343 14.6675,556.2156 12.7849,555.8241 11.0547,555.4997 9.5876,555.2993 8.446,555.2072 7.6797,555.168 7.5351,555.2104 7.9126,555.2597 8.2695,554.9212 8.4212,553.593 8.4857,550.9448 8.5131,547.3934 8.6017,543.3592 9.169,536.6297 10.0899,527.6433 10.797,518.4809 11.2651,508.8964 11.62,499.3982 11.9365,490.0582 12.3175,480.848 12.7316,471.7468 13.029,462.671 13.1823,453.5922 13.2475,444.4704 13.2752,435.8166 13.2869,427.8964 13.292,419.8922 13.2941,411.9113 13.1814,404.4335 12.8176,396.9541 12.2972,389.5817 11.8353,382.3868 11.5619,374.7864 11.4458,366.6002 11.3964,358.1773 11.3754,349.8431 11.3665,341.6212 11.3627,333.4696 11.3611,325.3618 11.3604,317.5262 11.3601,310.0215 11.36,302.4352 11.2059,294.6302 10.8073,286.7895 10.4299,278.8329 10.2406,270.5857 10.1601,262.1491 10.1259,253.5624 10.1114,245.1186 10.0147,237.0464 9.7021,228.658 9.2092,219.7914 8.73,211.0151 8.4359,202.2858 8.3109,193.6547 8.2578,185.3291 8.2352,176.8852 8.2256,168.4604 8.2215,160.3893 8.2198,152.1595 8.2191,143.3603 8.2188,133.6228 8.2186,123.4223 8.3553,114.1728 8.7176,106.5708 9.1316,100.7769 9.5675,96.7378 10.134,94.1772 10.7657,92.7226 11.2749,91.8039 11.5549,90.6981 11.6739,88.7017 11.7244,85.601 11.7459,80.6366 11.7319,74.9878 11.6297,70.1872 11.463,65.7297 11.3421,61.6143 11.2907,57.6878 11.2689,53.8275 11.2596,50.091 11.1825,46.4122 10.9379,42.8465 10.5566,39.5547 10.1211,36.5651 9.6915,33.94 8.7194,27.278 7.3855,17.7952 L6.8186,13.7651 " stroke-linecap="round" fill="none" pointer-events="all" stroke="color(display-p3 0.563 0.9495 0.3857)" stroke-width="49.28" opacity="0.35"/>
		</g>
	</g>
	<g transform="matrix(1, 0, 0, 1, 2242.3162, 148.2464)" opacity="1">
		<g transform="scale(1)">
			<path d="M0,0 Q33.1725,-0.299 45.9374,-0.3625 T70.8031,-0.4531 94.8947,-0.4916 117.446,-0.5079 137.0577,-0.5149 155.0898,-0.7737 172.3611,-1.4443 187.7777,-2.083 201.4048,-2.4033 213.9065,-2.5394 225.3587,-2.5972 235.4564,-2.7311 244.0149,-3.018 251.1897,-3.3613 257.1537,-3.694 262.1866,-3.9217 266.6312,-4.1105 270.8085,-4.3747 279.1564,-4.579 290.0841,-4.685 L294.7283,-4.73 " stroke-linecap="round" fill="none" pointer-events="all" stroke="color(display-p3 0.563 0.9495 0.3857)" stroke-width="49.28" opacity="0.35"/>
		</g>
	</g>
	<g transform="matrix(1, 0, 0, 1, 2489.5099, -111.9555)" opacity="1">
		<g transform="scale(1)">
			<path d="M 0 0 m -0.1, 0 a 0.1,0.1 0 1,0 0.2,0 a 0.1,0.1 0 1,0 -0.2,0" stroke-linecap="round" fill="none" pointer-events="all" stroke="color(display-p3 0.563 0.9495 0.3857)" stroke-width="56.64279950857163" opacity="0.35"/>
		</g>
	</g>
	<g transform="matrix(1, 0, 0, 1, 2431.2094, -116.0298)" opacity="1">
		<g transform="scale(1)">
			<path d="M 0 0 m -0.1, 0 a 0.1,0.1 0 1,0 0.2,0 a 0.1,0.1 0 1,0 -0.2,0" stroke-linecap="round" fill="none" pointer-events="all" stroke="color(display-p3 0.1512 0.9414 0.9996)" stroke-width="51.638939137806496" opacity="0.35"/>
		</g>
	</g>
	<g transform="matrix(1, 0, 0, 1, 2058.7129, 117.6979)" opacity="1">
		<g transform="scale(1)">
			<path d="M0,0 Q25.0873,0 34.0149,0 T50.8653,0 71.3581,-1.2479 93.974,-3.8599 112.9323,-6.5264 130.0804,-9.0743 145.7029,-11.5052 159.8807,-13.5833 173.1398,-15.2085 185.9164,-16.5996 198.5311,-17.8384 210.87,-19.0375 222.6862,-20.3142 234.1194,-21.5877 245.2374,-22.6654 255.9885,-23.3763 266.3135,-23.7312 276.3309,-23.8821 286.3842,-24.0796 296.5651,-24.4276 306.8403,-24.8284 317.1182,-25.2405 327.107,-25.5352 337.2977,-25.6604 348.4885,-25.7136 360.3775,-25.7363 372.7414,-25.7459 385.313,-25.75 397.346,-25.7517 409.4952,-25.7524 422.4268,-25.7528 435.5157,-25.7529 448.3608,-25.7529 461.2231,-25.753 474.7999,-25.6335 489.0801,-25.3464 503.2538,-24.9771 516.5025,-24.5617 528.6796,-24.1822 540.3034,-23.8264 551.2495,-23.514 561.6946,-23.3395 572.3726,-23.2654 583.0374,-23.2338 593.1301,-23.2205 602.6463,-23.2148 611.3482,-23.2123 618.8904,-23.2113 625.4739,-23.2109 631.1383,-23.2107 635.6386,-23.2106 639.029,-23.1328 641.5107,-22.9413 643.3158,-22.7014 644.7442,-22.4439 645.9205,-22.2566 646.8316,-22.177 647.5581,-22.0848 648.1658,-21.9317 648.6282,-21.7582 648.9541,-21.4955 648.9977,-21.1309 648.7058,-20.7703 648.0182,-20.2613 647.0791,-19.6142 646.1424,-18.8917 645.2038,-17.9788 644.3851,-16.8515 643.7727,-15.4413 643.4204,-13.886 643.2707,-12.3411 643.207,-10.634 643.18,-8.5883 643.1685,-6.3487 643.1636,-4.0128 643.1615,-1.5609 643.1607,0.8291 643.1603,3.1177 643.1601,5.3689 643.1601,7.6374 643.16,10.3108 643.16,13.6371 643.16,17.6299 643.16,22.5091 643.16,28.471 643.16,35.4183 643.16,43.1179 643.16,51.29 643.16,59.5352 643.16,67.8281 643.0163,76.8222 642.5239,86.9259 641.7483,97.2926 640.8638,107.2932 639.9531,117.2604 639.0658,126.8549 638.2517,135.8268 637.6355,145.0206 637.2988,154.631 637.0868,164.1128 636.804,173.651 636.4998,183.2912 636.3102,192.6521 636.2296,202.2336 636.0976,212.8064 635.6936,224.4509 634.829,237.3791 633.4352,251.6617 631.6698,266.9145 629.7092,283.2105 627.47,300.9172 624.9573,319.7513 622.633,339.301 620.7021,359.6077 618.9443,380.1806 617.4094,400.5497 616.1563,420.5489 615.1838,439.7153 614.5664,457.6469 614.12,473.6001 613.7117,487.5896 613.452,500.7529 613.3416,513.2538 613.2947,524.7895 613.2747,535.4647 613.2663,545.2212 613.2627,553.8534 613.2611,561.527 613.2605,568.6043 613.2602,575.214 613.2601,581.4695 613.26,587.3826 613.26,592.7472 613.26,597.4868 613.2658,601.9775 613.4924,606.6847 614.2127,611.598 615.2461,616.5321 616.3437,621.4778 617.5663,626.4397 618.9312,631.4556 620.3709,636.6779 621.8625,642.352 623.2813,648.446 624.4996,654.5796 625.5549,660.4575 626.4203,665.8794 627.0411,670.6545 627.443,674.7489 627.654,678.3067 627.7437,681.4335 627.7818,684.1243 627.798,686.4963 627.8049,688.8245 627.8078,691.2287 627.8091,693.7846 627.8096,696.6441 627.8098,699.7603 627.8099,703.0914 627.81,706.7416 627.81,710.6498 627.81,714.7788 627.81,719.3351 627.81,724.5316 627.81,730.2948 627.81,736.2433 627.81,741.9759 627.81,747.1054 627.81,751.4115 627.81,754.8536 627.81,757.4977 627.81,759.6192 627.81,761.4964 627.81,763.2252 627.81,764.841 627.81,766.3837 627.81,767.7092 627.81,768.7033 627.81,769.5538 627.81,770.6157 627.81,773.1653 627.81,777.0754 627.81,781.1246 627.81,785.1579 627.81,789.0287 627.81,792.6666 627.81,795.9108 627.81,798.7598 627.81,801.3936 627.81,803.9305 627.81,806.4232 627.81,808.9057 627.81,811.4643 627.81,814.2804 627.81,817.2727 627.81,820.0091 627.81,822.2921 627.81,824.1906 627.81,825.7285 627.81,827.0102 627.81,828.1107 627.81,829.0593 627.81,830.0211 627.81,831.0718 627.81,832.2077 627.81,833.4769 627.81,834.864 627.81,836.3624 627.81,838.2888 627.6289,841.2698 626.8446,845.6856 625.2722,851.5117 623.2843,858.1761 621.3958,864.5048 619.8687,869.518 618.7655,873.0327 617.9516,875.5686 617.2405,877.7887 616.6451,880.0746 616.1965,882.3635 615.7587,884.3341 615.3311,885.8969 615.1349,887.0948 614.7929,887.8651 612.8937,888.2981 608.0731,888.8268 599.9322,889.8574 584.2334,891.6101 563.7931,893.5945 544.1953,895.2244 524.0069,896.5841 503.1189,897.6762 481.5542,898.3682 459.7018,898.6957 437.5978,898.8348 415.45,898.894 393.6546,898.9191 372.1383,898.9298 351.1317,898.9344 331.8078,898.9363 315.0306,898.9371 300.385,898.9041 287.3382,898.7344 275.5891,898.4511 264.7624,898.2417 254.618,898.1528 245.0512,898.115 236.0546,898.0989 227.6167,898.0921 219.5629,898.0892 211.517,898.0879 203.2387,898.0874 194.695,898.0872 185.909,898.0871 177.1609,898.087 168.7798,898.087 160.8995,898.087 153.4162,898.087 145.5236,898.087 136.8994,897.987 128.0936,897.7471 119.0985,897.5312 110.1294,897.2894 101.7175,896.8197 93.8673,896.1588 86.5319,895.4221 79.4382,894.6949 72.2977,894.1245 65.1834,893.8071 58.2383,893.6722 51.6814,893.6149 45.7754,893.5905 40.6318,893.5218 36.094,893.1869 32.0121,892.4803 28.3194,891.6464 24.9531,890.9001 21.8981,890.23 19.0874,889.6034 16.5043,889.0841 14.3139,888.7634 12.6097,888.6159 11.4656,888.5533 11.2496,888.6212 11.8133,888.7 12.3462,888.1582 12.5726,886.0325 12.6689,881.794 12.7098,876.1099 12.8422,869.6531 13.689,858.8825 15.0638,844.4997 16.1196,829.8351 16.8185,814.495 17.3483,799.2931 17.8208,784.3443 18.3896,769.6032 19.008,755.0366 19.4519,740.5107 19.6808,725.98 19.7781,711.3804 19.8194,697.5298 19.837,684.8536 19.8445,672.0427 19.8477,659.2692 19.6794,647.3008 19.1364,635.33 18.3593,623.5304 17.6697,612.0149 17.2616,599.8502 17.0882,586.7482 17.0145,573.2672 16.9832,559.9282 16.9698,546.7689 16.9642,533.7222 16.9618,520.7456 16.9608,508.2046 16.9603,496.1932 16.9601,484.0513 16.7301,471.5593 16.1349,459.0101 15.5715,446.2756 15.2889,433.0758 15.1688,419.5728 15.1177,405.8297 15.096,392.3153 14.9517,379.3957 14.485,365.97 13.749,351.7789 13.0337,337.7323 12.5946,323.761 12.4079,309.9467 12.3286,296.6216 12.2949,283.107 12.2806,269.623 12.2745,256.7051 12.2719,243.5331 12.2708,229.4499 12.2703,213.8649 12.2701,197.5388 12.4742,182.7349 13.0152,170.5679 13.6332,161.2947 14.284,154.83 15.1298,150.7318 16.0729,148.4036 16.8331,146.9333 17.2511,145.1634 17.4287,141.9682 17.5042,137.0055 17.5363,129.0599 17.5154,120.0188 17.3628,112.3354 17.1139,105.2013 16.9334,98.6145 16.8567,92.33 16.8241,86.1516 16.8102,80.1712 16.6951,74.2833 16.3299,68.5764 15.7607,63.3078 15.1106,58.5228 14.4691,54.3214 13.9406,50.5069 13.5148,46.7902 13.052,43.215 12.0417,35.8869 10.7353,26.1636 L10.18,22.0312 " stroke-linecap="round" fill="none" pointer-events="all" stroke="color(display-p3 0.1512 0.9414 0.9996)" stroke-width="49.28" opacity="0.35"/>
		</g>
	</g>
	<g transform="matrix(1, 0, 0, 1, 2216.0228, -33.667)" opacity="1">
		<g transform="scale(1)">
			<path d="M0,0 Q37.4095,0 50.5513,0 T73.7805,0.0949 91.3292,0.4658 104.2384,1.141 113.7355,1.9828 121.0434,2.8696 127.0588,3.6461 136.2336,4.9737 147.396,6.7044 L152.14,7.44 " stroke-linecap="round" fill="none" pointer-events="all" stroke="color(display-p3 0.563 0.9495 0.3857)" stroke-width="49.28" opacity="0.35"/>
		</g>
	</g>
	<g transform="matrix(1, 0, 0, 1, 2119.3462, -32.931)" opacity="1">
		<g transform="scale(1)">
			<path d="M0,0 Q15.0075,0 18.8003,0 T24.7456,0 28.3074,0 30.8504,0 32.9259,0 39.5005,0 49.2966,0 L53.46,0 " stroke-linecap="round" fill="none" pointer-events="all" stroke="color(display-p3 0.1512 0.9414 0.9996)" stroke-width="49.28" opacity="0.35"/>
		</g>
	</g>
	<g transform="matrix(1, 0, 0, 1, 1437.9915, 38.2539)" opacity="1">
		<g transform="scale(1)">
			<path d="M0,0 Q44.0105,0 62.1861,0 T95.9955,0 126.2316,0 155.8345,0 186.9193,0 220.8677,0.2703 257.5023,1.3712 293.2918,3.153 323.8348,4.6607 348.1229,5.4538 367.7604,5.7909 383.817,5.9341 396.9316,5.995 407.8557,6.0209 417.176,5.9571 425.1823,5.6483 431.9142,5.0513 437.3887,4.3749 441.7537,3.8833 445.3166,3.6342 448.2942,3.5283 450.8994,3.4833 453.6022,3.4641 456.729,3.456 460.1709,3.4526 463.905,3.4511 467.9156,3.4505 476.4109,3.7204 487.6243,4.1903 L492.39,4.39 " stroke-linecap="round" fill="none" pointer-events="all" stroke="color(display-p3 0.1512 0.9414 0.9996)" stroke-width="49.28" opacity="0.35"/>
		</g>
	</g>
	<g transform="matrix(1, 0, 0, 1, 1425.3462, 117.6979)" opacity="1">
		<g transform="scale(1)">
			<path d="M0,0 Q23.4498,0 31.7948,0 T47.5454,0 66.7006,-1.2479 87.8403,-3.8599 105.5613,-6.5264 121.5901,-9.0743 136.193,-11.5052 149.4454,-13.5833 161.8391,-15.2085 173.7818,-16.5996 185.5731,-17.8384 197.1066,-19.0375 208.1516,-20.3142 218.8386,-21.5877 229.2309,-22.6654 239.2803,-23.3763 248.9314,-23.7312 258.2949,-23.8821 267.6921,-24.0796 277.2084,-24.4276 286.813,-24.8284 296.4201,-25.2405 305.7569,-25.5352 315.2825,-25.6604 325.7429,-25.7136 336.8559,-25.7363 348.4128,-25.7459 360.1638,-25.75 371.4115,-25.7517 382.7677,-25.7524 394.8553,-25.7528 407.0898,-25.7529 419.0965,-25.7529 431.1193,-25.753 443.81,-25.6335 457.1581,-25.3464 470.4067,-24.9771 482.7907,-24.5617 494.1729,-24.1822 505.0381,-23.8264 515.2697,-23.514 525.0331,-23.3395 535.0142,-23.2654 544.9828,-23.2338 554.4168,-23.2205 563.3119,-23.2148 571.4458,-23.2123 578.4957,-23.2113 584.6496,-23.2109 589.9442,-23.2107 594.1509,-23.2106 597.32,-23.1328 599.6397,-22.9413 601.3269,-22.7014 602.6621,-22.4439 603.7617,-22.2566 604.6133,-22.177 605.2923,-22.0848 605.8604,-21.9317 606.2926,-21.7582 606.5972,-21.4955 606.638,-21.1309 606.3651,-20.7703 605.7224,-20.2613 604.8446,-19.6142 603.969,-18.8917 603.0917,-17.9788 602.3264,-16.8515 601.754,-15.4413 601.4247,-13.886 601.2847,-12.3411 601.2253,-10.634 601.2,-8.5883 601.1892,-6.3487 601.1847,-4.0128 601.1827,-1.5609 601.1819,0.8291 601.1816,3.1177 601.1814,5.3689 601.1813,7.6374 601.1813,10.3108 601.1813,13.6371 601.1813,17.6299 601.1813,22.5091 601.1813,28.471 601.1813,35.4183 601.1813,43.1179 601.1813,51.29 601.1813,59.5352 601.1813,67.8281 601.0469,76.8222 600.5867,86.9259 599.8617,97.2926 599.0349,107.2932 598.1837,117.2604 597.3543,126.8549 596.5934,135.8268 596.0174,145.0206 595.7027,154.631 595.5044,164.1128 595.2401,173.651 594.9558,183.2912 594.7786,192.6521 594.7032,202.2336 594.5798,212.8064 594.2022,224.4509 593.3941,237.3791 592.0912,251.6617 590.4411,266.9145 588.6084,283.2105 586.5154,300.9172 584.1666,319.7513 581.994,339.301 580.1892,359.6077 578.5461,380.1806 577.1115,400.5497 575.9401,420.5489 575.0311,439.7153 574.4539,457.6469 574.0367,473.6001 573.6551,487.5896 573.4123,500.7529 573.3091,513.2538 573.2653,524.7895 573.2466,535.4647 573.2387,545.2212 573.2353,553.8534 573.2339,561.527 573.2333,568.6043 573.233,575.214 573.2329,581.4695 573.2329,587.3826 573.2329,592.7472 573.2329,597.4868 573.2382,601.9775 573.4501,606.6847 574.1233,611.598 575.0894,616.5321 576.1153,621.4778 577.2581,626.4397 578.5339,631.4556 579.8796,636.6779 581.2739,642.352 582.6001,648.446 583.7388,654.5796 584.7253,660.4575 585.5342,665.8794 586.1145,670.6545 586.4901,674.7489 586.6874,678.3067 586.7712,681.4335 586.8068,684.1243 586.822,686.4963 586.8284,688.8245 586.8312,691.2287 586.8323,693.7846 586.8328,696.6441 586.833,699.7603 586.8331,703.0914 586.8332,706.7416 586.8332,710.6498 586.8332,714.7788 586.8332,719.3351 586.8332,724.5316 586.8332,730.2948 586.8332,736.2433 586.8332,741.9759 586.8332,747.1054 586.8332,751.4115 586.8332,754.8536 586.8332,757.4977 586.8332,759.6192 586.8332,761.4964 586.8332,763.2252 586.8332,764.841 586.8332,766.3837 586.8332,767.7092 586.8332,768.7033 586.8332,769.5538 586.8332,770.6157 586.8332,773.1653 586.8332,777.0754 586.8332,781.1246 586.8332,785.1579 586.8332,789.0287 586.8332,792.6666 586.8332,795.9108 586.8332,798.7598 586.8332,801.3936 586.8332,803.9305 586.8332,806.4232 586.8332,808.9057 586.8332,811.4643 586.8332,814.2804 586.8332,817.2727 586.8332,820.0091 586.8332,822.2921 586.8332,824.1906 586.8332,825.7285 586.8332,827.0102 586.8332,828.1107 586.8332,829.0593 586.8332,830.0211 586.8332,831.0718 586.8332,832.2077 586.8332,833.4769 586.8332,834.864 586.8332,836.3624 586.8332,838.2888 586.6639,841.2698 585.9308,845.6856 584.461,851.5117 582.6029,858.1761 580.8377,864.5048 579.4102,869.518 578.379,873.0327 577.6182,875.5686 576.9536,877.7887 576.397,880.0746 575.9777,882.3635 575.5684,884.3341 575.1687,885.8969 574.9854,887.0948 574.6657,887.8651 572.8905,888.2981 568.3845,888.8268 560.7749,889.8574 546.1008,891.6101 526.9946,893.5945 508.676,895.2244 489.8052,896.5841 470.2806,897.6762 450.1234,898.3682 429.6973,898.6957 409.036,898.8348 388.3338,898.894 367.961,898.9191 347.8491,898.9298 328.2135,898.9344 310.1509,898.9363 294.4687,898.9371 280.779,898.9041 268.5838,898.7344 257.6016,898.4511 247.4815,898.2417 237.9992,898.1528 229.0568,898.115 220.6475,898.0989 212.7603,898.0921 205.2321,898.0892 197.7114,898.0879 189.9734,898.0874 181.9873,898.0872 173.7748,898.0871 165.5977,898.087 157.7636,898.087 150.3977,898.087 143.4028,898.087 136.0254,898.087 127.9641,897.987 119.733,897.7471 111.325,897.5312 102.9413,897.2894 95.0784,896.8197 87.7406,896.1588 80.884,895.4221 74.2533,894.6949 67.5789,894.1245 60.9289,893.8071 54.4371,893.6722 48.3082,893.6149 42.7876,893.5905 37.9798,893.5218 33.7382,893.1869 29.9227,892.4803 26.471,891.6464 23.3244,890.9001 20.4688,890.23 17.8416,889.6034 15.4271,889.0841 13.3797,888.7634 11.7867,888.6159 10.7173,888.5533 10.5154,888.6212 11.0423,888.7 11.5403,888.1582 11.752,886.0325 11.842,881.794 11.8802,876.1099 12.004,869.6531 12.7956,858.8825 14.0806,844.4997 15.0675,829.8351 15.7207,814.495 16.216,799.2931 16.6576,784.3443 17.1893,769.6032 17.7673,755.0366 18.1823,740.5107 18.3962,725.98 18.4872,711.3804 18.5258,697.5298 18.5423,684.8536 18.5492,672.0427 18.5522,659.2692 18.3949,647.3008 17.8873,635.33 17.161,623.5304 16.5164,612.0149 16.135,599.8502 15.9729,586.7482 15.904,573.2672 15.8747,559.9282 15.8622,546.7689 15.8569,533.7222 15.8547,520.7456 15.8537,508.2046 15.8533,496.1932 15.8532,484.0513 15.6381,471.5593 15.0818,459.0101 14.5551,446.2756 14.291,433.0758 14.1787,419.5728 14.131,405.8297 14.1107,392.3153 13.9758,379.3957 13.5395,365.97 12.8516,351.7789 12.183,337.7323 11.7725,323.761 11.5981,309.9467 11.5239,296.6216 11.4924,283.107 11.479,269.623 11.4734,256.7051 11.4709,243.5331 11.4699,229.4499 11.4695,213.8649 11.4693,197.5388 11.66,182.7349 12.1657,170.5679 12.7434,161.2947 13.3517,154.83 14.1423,150.7318 15.0239,148.4036 15.7344,146.9333 16.1251,145.1634 16.2911,141.9682 16.3617,137.0055 16.3917,129.0599 16.3722,120.0188 16.2295,112.3354 15.9969,105.2013 15.8282,98.6145 15.7565,92.33 15.726,86.1516 15.713,80.1712 15.6054,74.2833 15.2641,68.5764 14.732,63.3078 14.1243,58.5228 13.5247,54.3214 13.0307,50.5069 12.6327,46.7902 12.2001,43.215 11.2558,35.8869 10.0346,26.1636 L9.5156,22.0312 " stroke-linecap="round" fill="none" pointer-events="all" stroke="color(display-p3 0.1512 0.9414 0.9996)" stroke-width="49.28" opacity="0.35"/>
		</g>
	</g>
</svg>